<svg width="116" height="38" viewBox="0 0 116 38" fill="none" xmlns="http://www.w3.org/2000/svg">
<path d="M105.543 16.1997C105.201 16.1033 104.848 16.0551 104.543 15.9106C103.153 15.2843 101.75 14.7182 100.287 14.2967C95.9208 13.032 91.4086 12.9477 86.933 12.7188C83.994 12.5743 81.055 12.6345 78.1159 12.9116C77.7867 12.767 77.4452 12.6104 77.1159 12.4659C76.1037 11.6589 75.1281 10.8038 74.0794 10.057C66.994 5.09476 59.2013 1.97527 50.4696 1.43327C45.2623 1.10807 40.0916 1.60189 34.9574 2.45704C31.7257 2.99904 28.5672 3.79397 25.5916 5.19112C25.1769 5.38383 24.555 5.432 24.7745 6.21489C25.2867 7.99746 27.7135 10.0691 29.6403 10.322C30.8111 10.4786 31.9818 10.6593 33.1403 10.8399C33.1525 11.1169 33.7501 10.8399 33.5916 11.2976C29.933 10.9845 26.2745 10.5268 22.6038 10.3943C17.3477 10.2136 12.0672 10.3582 6.81107 10.599C6.28668 10.6231 5.77448 10.7556 5.18912 11.0688C6.32327 11.6589 7.33546 12.1528 8.31107 12.7068C11.4086 14.4653 14.494 16.2599 15.6403 19.9455C14.3355 20.9331 13.494 22.7518 11.3598 22.258C9.04278 21.0174 6.54278 20.2345 3.9818 19.7407C2.82327 19.5239 1.85985 20.1261 1.44521 21.3185C0.920822 21.4269 0.59156 21.0295 0.189117 20.8368C0.469604 19.7889 1.32327 19.1265 1.93302 18.2954C3.59156 17.8498 4.11594 16.3924 4.7379 15.0916C5.25009 14.0076 4.9818 13.6463 3.78668 13.4295C3.31107 13.3331 2.7379 13.5017 2.43302 12.9477C2.59156 10.6352 3.76229 9.51505 6.18912 9.31029C7.92083 9.16576 9.60375 8.50332 11.3111 8.06972C11.994 8.59967 12.6647 8.26243 13.2989 7.98541C15.5184 6.99777 17.7135 5.98604 19.933 4.97432C21.2501 4.49254 22.5794 4.01077 23.8964 3.54104C24.7135 3.31219 25.6159 3.31219 26.2989 2.70997C30.0794 1.55371 33.9696 0.867186 37.872 0.373366C41.9208 -0.132497 46.0184 -0.0361423 50.1037 0.204745C53.3233 0.397455 56.5062 0.770831 59.6403 1.49349C60.1403 1.60189 60.6403 1.69825 61.0672 1.98731C60.8599 2.25229 60.8598 2.48113 61.2257 2.60158C64.2989 3.66148 67.1281 5.22725 70.055 6.60031C72.7501 8.08177 75.4208 9.59936 78.1525 11.0085C79.1159 11.5024 80.2379 11.6228 81.3477 11.5024C82.9208 11.8155 84.5184 11.8637 86.1281 11.9239C91.4696 12.1046 96.7867 12.4418 101.86 14.3087C103.14 14.7784 104.433 15.2361 105.592 15.9708C105.555 16.0551 105.543 16.1274 105.543 16.1997Z" fill="#920000"/>
<path d="M0.115959 21.9208C0.0793686 21.5594 -0.152344 21.186 0.164734 20.8368C0.567169 21.0295 0.896439 21.4269 1.42083 21.3185C4.72571 21.6558 8.01839 22.1496 11.3477 22.258C13.4818 22.7518 14.3233 20.9331 15.6281 19.9455C15.9208 19.825 16.2257 19.7407 16.494 19.5841C18.2257 18.6086 20.0306 18.0425 22.0672 18.0063C24.2013 17.9702 26.0672 18.6206 27.9208 19.4998C31.1404 21.728 33.2257 24.5826 33.4086 28.6174C33.4818 30.2314 34.1525 31.0263 35.2379 31.1106C36.1404 31.1829 37.055 31.1347 37.9574 31.1347C38.4086 31.1347 38.616 30.9661 38.4818 30.4843C38.1038 29.1474 37.7501 27.7984 37.3842 26.4615C37.3964 25.8834 38.1403 25.6786 38.0916 25.0764C37.6038 24.1008 37.0916 23.1493 36.6282 22.1616C35.4452 19.6323 34.4818 17.0187 33.8233 14.3087C33.9208 13.2849 33.7257 12.2973 33.5794 11.2976C33.7379 10.852 33.1403 11.129 33.1281 10.8399C33.6891 10.8399 34.2623 10.7436 34.7867 11.0447C34.4696 11.0808 34.0794 11.0326 34.0794 11.5265C34.0062 12.3937 34.1404 13.2368 34.3233 14.0678C34.3599 14.2967 34.3721 14.5255 34.4208 14.7544C35.2501 18.4158 36.8842 21.7642 38.5794 25.0764C38.5794 25.7147 37.6891 25.9677 37.8721 26.6903C38.2257 27.8827 38.6403 29.051 38.9208 30.2555C39.0794 30.9781 39.4208 31.1588 40.1282 31.1467C52.0672 31.1227 64.0062 31.1227 75.933 31.1467C76.8599 31.1467 77.1403 30.8215 77.1769 29.9182C77.2745 27.7141 77.4086 25.51 77.6647 23.3299C78.0184 20.4032 78.2745 17.4884 78.3233 14.5496C78.4208 13.3692 77.6647 13.02 76.6891 12.8875C76.6769 12.8273 76.6769 12.767 76.6769 12.7068C76.8233 12.6225 76.9574 12.5502 77.1038 12.478C77.433 12.6225 77.7745 12.7791 78.1038 12.9236C78.5794 13.4536 78.933 14.0317 78.8111 14.7784C78.7867 16.0551 78.5794 17.3198 78.5306 18.5965C78.433 20.9813 78.1038 23.3661 77.9086 25.7509C77.7867 27.2564 77.494 28.7499 77.616 30.2675C77.6403 30.6047 77.5672 30.954 78.0306 31.1106C80.2013 31.8574 81.8477 30.7131 81.8842 28.4488C81.9086 26.8349 82.3477 25.3534 83.116 23.896C84.3721 21.4992 86.433 20.0177 88.7501 18.7892C89.1282 18.6929 89.5062 18.5845 89.8843 18.4881C94.2989 17.2716 98.0794 18.3918 101.299 21.5474C103.531 23.9442 104.543 26.7867 104.372 30.0387C104.348 30.4723 104.36 30.9059 104.823 31.1467C105.104 31.6165 105.506 31.8453 106.079 31.8574C108.909 31.9417 111.714 31.761 114.482 31.1467C114.372 31.8333 113.762 31.8815 113.274 32.038C112.543 32.2789 111.774 32.4596 111.031 32.6643C110.75 32.4596 110.433 32.5198 110.116 32.5318C107.799 32.6523 105.482 32.7848 103.165 32.9052L103.177 32.8932C103.079 31.1467 103.274 29.4124 102.994 27.6659C102.262 23.1372 98.9818 19.8973 94.1525 19.2951C90.0184 18.7772 85.8477 20.9693 83.933 24.9439C82.7745 27.3407 83.0428 29.87 83.0062 32.3753C83.1038 32.4355 83.2135 32.4716 83.3111 32.5198C83.2135 32.8209 83.1403 33.1461 82.6525 32.9654C82.6403 32.9534 82.6282 32.9534 82.6282 32.9414C82.7257 32.9293 82.8111 32.9293 82.9086 32.9173C82.7623 32.0742 82.0916 32.3512 81.6038 32.3512C65.5916 32.3391 49.5916 32.3391 33.5794 32.3391C33.2013 32.3391 32.8233 32.3873 32.4452 32.4114C32.433 32.3994 32.4086 32.3873 32.3964 32.3753C32.2257 31.0865 32.5672 29.7737 32.2013 28.509C32.1647 28.0032 32.1769 27.4853 32.0672 27.0035C31.1525 22.8963 27.6891 19.8612 23.2989 19.271C19.3233 18.741 15.1282 20.9933 13.2135 24.6307C12.0916 26.7626 12.0916 29.051 12.0916 31.3395C10.7379 31.2551 9.42083 30.9902 8.11595 30.6891C5.73791 29.6171 3.18913 29.0872 0.676926 28.4368C0.494003 26.2688 0.311081 24.0887 0.115959 21.9208Z" fill="#420300"/>
<path d="M111.701 31.0986C111.274 31.1468 110.835 31.1347 110.421 31.219C108.372 31.6647 106.543 31.4599 105.189 29.6653C105.165 29.6292 105.055 29.6653 104.835 29.6774C104.835 30.1591 104.835 30.6529 104.835 31.1468C104.36 30.9059 104.36 30.4723 104.384 30.0387C104.555 26.7867 103.543 23.9563 101.311 21.5474C102.97 20.4634 104.799 19.8371 106.774 19.6564C107.323 19.801 107.86 19.9455 108.409 20.09C109.274 20.4152 110.14 20.7404 111.006 21.0656C111.64 21.4149 112.262 21.7762 112.909 22.1135C113.226 22.2821 113.592 22.3182 113.884 22.0533C114.226 21.7401 113.872 21.5113 113.738 21.2704C113.653 21.1138 113.689 20.9813 113.823 20.8729C115.616 21.7883 114.921 23.3541 114.774 24.703C114.592 26.317 114.189 27.8948 113.872 29.4967C113.653 30.7132 112.738 30.9902 111.701 31.0986ZM113.067 25.3896C112.494 25.2209 111.86 25.2209 111.348 25.5341C109.738 26.5338 108.482 27.8948 107.567 29.5569C107.323 29.9905 107.445 30.3639 107.982 30.3639C109.14 30.3639 110.311 30.6168 111.445 30.2073C111.896 30.1591 112.116 29.846 112.262 29.4726C112.653 28.4729 113.153 27.5094 113.384 26.4495C113.726 25.9677 113.677 25.5702 113.067 25.3896Z" fill="#920000"/>
<path d="M14.8598 24.149C15.2989 23.4986 15.6281 22.4266 16.7989 22.4869C16.7623 22.5953 16.7623 22.7518 16.6891 22.8121C16.2745 23.1493 15.7867 23.5588 16.2501 24.0406C16.7013 24.5103 17.0672 23.9201 17.3964 23.6431C19.2989 22.1255 21.4696 21.7401 23.8355 22.1014C25.2135 22.3062 26.2745 23.0891 27.3477 23.8961C27.6769 24.149 27.994 24.2092 28.2623 23.8479C28.5184 23.5106 28.2867 23.3059 28.0062 23.0891C27.5062 22.6796 27.0306 22.246 26.555 21.8124C26.555 21.8003 26.555 21.7883 26.555 21.7762C26.7379 21.8003 26.933 21.7883 27.0794 21.8606C30.3964 23.619 31.8842 28.4488 30.9086 31.0504C30.7989 31.3515 30.494 31.7249 30.8598 31.9778C31.0794 32.1224 31.4696 32.0621 31.7745 32.014C32.2745 31.9297 32.1647 31.5081 32.1769 31.1709C32.2013 30.2796 32.2013 29.3883 32.2135 28.497C32.5916 29.7737 32.2379 31.0865 32.4086 32.3633C32.4086 32.3753 32.4086 32.3873 32.4086 32.4114C32.3842 32.5319 32.3111 32.5921 32.1891 32.6162C31.1891 32.4355 30.6281 32.8932 30.1525 33.7484C29.6281 34.6878 29.0062 35.5911 28.1038 36.2415C27.7623 36.4945 27.4086 36.7594 26.9452 36.7113C24.1159 38.3252 21.1891 38.3132 18.2013 37.193C16.2867 35.8923 14.5184 34.4831 13.7989 32.1585C13.7379 31.9417 13.7135 31.7129 13.6769 31.4961C12.6159 28.8342 13.372 26.3892 14.8598 24.149ZM21.2989 36.0368C21.2135 36.1211 21.1403 36.2054 21.055 36.2897C19.6159 36.2054 18.4574 35.5068 17.3842 34.6396C17.055 34.3747 16.7379 33.9411 16.2867 34.3867C15.8477 34.8323 16.2745 35.1335 16.555 35.4587C17.7745 36.8438 19.4452 37.3376 21.1647 37.5664C23.7501 37.9157 26.0428 37.1328 27.9818 35.3864C28.2867 35.1094 28.5794 34.736 28.2745 34.3747C27.8964 33.9411 27.4696 34.2422 27.1769 34.5794C26.555 35.29 25.7379 35.6273 24.8477 35.8441C24.8477 35.7598 24.8477 35.6634 24.8477 35.5791C26.8233 34.5553 28.3842 33.1823 28.8842 30.9179C28.9208 30.8336 28.9452 30.7493 28.9696 30.677C29.2989 29.6533 29.2745 28.6174 28.9208 27.5816C28.7013 25.9677 27.6891 24.8837 26.4818 23.9081C26.1891 23.33 25.6159 23.1975 25.0794 22.9927C20.494 21.0174 15.5794 23.9563 15.3233 28.8704C15.1281 32.4355 17.6037 35.3743 21.2989 36.0368Z" fill="#333230"/>
<path d="M85.2257 24.8837C85.6038 24.1851 85.9208 23.3781 86.8599 23.1854C87.1038 24.2333 87.5428 24.4621 88.2257 23.7756C90.555 21.439 95.2501 21.2824 98.0184 23.7756C98.7501 24.438 99.1525 24.2453 99.3843 23.1974C99.7257 23.3179 99.9818 23.5106 100.214 23.8117C102.287 26.606 102.579 29.593 101.299 32.7848C100.396 34.6035 99.0306 36.0006 97.2867 37.0485C94.4208 38.3734 91.5794 38.2891 88.7257 37.0003C86.4452 36.2776 85.2867 34.5432 84.4696 32.5077C84.5428 32.4716 84.6038 32.4355 84.6769 32.3994C83.9696 29.8219 83.9086 27.3046 85.2257 24.8837ZM87.494 35.5791C89.2013 36.928 91.1769 37.6146 93.6647 37.6627C95.5062 37.5784 97.2989 36.6751 98.9208 35.3864C99.2013 35.1696 99.5428 34.7721 99.1891 34.3867C98.8355 33.9892 98.3964 34.1458 98.0428 34.471C95.055 37.2171 91.116 37.0123 88.1769 34.6396C87.8111 34.3505 87.433 33.8688 87.0062 34.4348C86.6038 34.9768 87.1525 35.302 87.494 35.5791ZM92.9818 36.0127C96.7989 36.0849 100.006 33.0016 100.055 29.2076C100.104 25.5581 96.994 22.4266 93.1891 22.3062C89.4696 22.1978 86.2257 25.2811 86.1525 29.0028C86.0794 32.845 89.1038 35.9524 92.9818 36.0127Z" fill="#333230"/>
<path d="M83.9452 24.9439C85.8598 20.9693 90.0184 18.7772 94.1647 19.2951C98.9818 19.8973 102.274 23.1373 103.006 27.6659C103.287 29.4124 103.092 31.1588 103.189 32.8932C102.555 32.8571 101.933 32.8089 101.299 32.7728C102.579 29.593 102.287 26.594 100.214 23.7997C99.994 23.4986 99.7257 23.3059 99.3842 23.1854C95.2745 19.4998 90.055 20.1382 86.8598 23.1734C85.9208 23.3661 85.6038 24.1731 85.2257 24.8716C83.9086 27.2926 83.9818 29.8098 84.6891 32.3753C84.6159 32.4235 84.555 32.4596 84.4818 32.4837C84.1038 32.6644 83.7135 32.6403 83.3355 32.4957C83.2379 32.4596 83.1281 32.4114 83.0306 32.3512C83.0672 29.8701 82.7989 27.3528 83.9452 24.9439Z" fill="#272624"/>
<path d="M13.2257 24.6307C15.1403 20.9933 19.3476 18.741 23.3111 19.271C27.7013 19.8491 31.1647 22.8963 32.0794 27.0035C32.1891 27.4973 32.1769 28.0032 32.2135 28.509C32.2013 29.4003 32.2013 30.2916 32.1769 31.1829C32.1647 31.5081 32.2867 31.9417 31.7745 32.026C31.4696 32.0742 31.0794 32.1344 30.8598 31.9899C30.494 31.749 30.7989 31.3635 30.9086 31.0624C31.8842 28.4608 30.4086 23.619 27.0794 21.8726C26.933 21.7883 26.7379 21.8003 26.555 21.7883C26.5428 21.7883 26.5184 21.7883 26.5062 21.7883C23.1281 20.1743 19.8842 20.3189 16.7867 22.4989C15.6159 22.4387 15.2867 23.5106 14.8477 24.161C13.3598 26.4013 12.5916 28.8463 13.6891 31.5201C13.1769 31.2672 12.6159 31.4719 12.0915 31.3515C12.1037 29.051 12.1038 26.7626 13.2257 24.6307Z" fill="#272724"/>
<path d="M112.494 20.8368C112.262 21.2824 111.738 21.0295 111.335 21.0656C111.226 21.0777 111.104 21.0777 110.994 21.0777C110.128 20.7525 109.262 20.4273 108.396 20.1021C108.287 19.6444 108.153 19.2108 107.677 18.982C106.921 18.5484 106.104 18.1509 105.433 17.645C104.86 17.2114 103.848 17.3198 103.665 16.3804C104.372 16.5249 105.092 16.6694 105.799 16.814C106.567 17.0789 107.348 17.3319 108.116 17.5969C108.75 17.9221 109.348 18.3436 110.128 18.2834C110.653 18.6688 111.177 19.0663 111.701 19.4517C111.762 19.548 111.823 19.6324 111.884 19.7287C112.128 20.1021 112.787 20.2948 112.494 20.8368Z" fill="#F4EEEA"/>
<path d="M3.77447 13.4174C4.96959 13.6462 5.23788 14.0076 4.72569 15.0795C4.10374 16.3803 3.57935 17.8377 1.92081 18.2833C1.4452 16.4405 1.56715 14.6459 2.42081 12.9236C2.72569 13.4897 3.28667 13.3331 3.77447 13.4174Z" fill="#EE0009"/>
<path d="M78.116 11.0206C75.3843 9.61141 72.7135 8.08178 70.0184 6.61237C70.6525 6.61237 71.2867 6.61237 71.933 6.61237C75.1769 8.02156 78.2501 9.75595 81.2989 11.5144C80.2013 11.6349 79.0794 11.5144 78.116 11.0206Z" fill="#293B4C"/>
<path d="M70.0306 6.6003C67.1159 5.2152 64.2745 3.66147 61.2013 2.60157C60.8355 2.48112 60.8355 2.25228 61.0428 1.9873C64.0794 2.64975 66.7989 4.07098 69.5794 5.35973C70.3842 5.7331 71.2257 6.04626 71.933 6.61234C71.2989 6.61234 70.6647 6.6003 70.0306 6.6003Z" fill="#415E79"/>
<path d="M106.079 31.8574C105.506 31.8453 105.104 31.6165 104.823 31.1468C104.823 30.6529 104.823 30.1591 104.823 29.6773C105.031 29.6653 105.153 29.6292 105.177 29.6653C106.531 31.4599 108.36 31.6767 110.409 31.219C110.823 31.1227 111.262 31.1347 111.689 31.0986C112.726 30.9902 113.64 30.7132 113.835 29.5087C113.677 30.2073 113.848 30.7734 114.482 31.1588C111.726 31.761 108.921 31.9417 106.079 31.8574Z" fill="#F06C5E"/>
<path d="M13.2745 7.97336C12.6403 8.25038 11.9818 8.58762 11.2867 8.05767C13.9574 6.7087 16.6769 5.49221 19.5672 4.68524C19.6769 4.76955 19.7867 4.86591 19.8964 4.95022C17.7013 5.97399 15.494 6.98572 13.2745 7.97336Z" fill="#273949"/>
<path d="M0.689119 28.4488C3.20131 29.0992 5.75009 29.6291 8.12814 30.7011C5.59156 30.5566 3.10376 30.1109 0.676927 29.3642C-0.310878 29.0631 0.176924 28.7379 0.689119 28.4488Z" fill="#34332F"/>
<path d="M111.031 32.6764C108.701 33.7604 106.226 33.4954 103.774 33.5316C103.299 33.5316 103.128 33.3629 103.177 32.9293C105.494 32.8089 107.811 32.6764 110.128 32.556C110.433 32.5319 110.75 32.4596 111.031 32.6764Z" fill="#2F2E2C"/>
<path d="M113.714 21.2703C113.848 21.5233 114.201 21.7401 113.86 22.0532C113.567 22.3302 113.214 22.2821 112.884 22.1134C112.238 21.7762 111.616 21.4149 110.982 21.0656C111.092 21.0656 111.214 21.0656 111.323 21.0535C111.726 21.0174 112.25 21.2703 112.482 20.8247C112.762 20.2827 112.116 20.09 111.884 19.7407C111.823 19.6443 111.762 19.56 111.701 19.4637C112.567 19.6925 113.189 20.2586 113.787 20.8729C113.665 20.9813 113.628 21.1258 113.714 21.2703Z" fill="#EF6B5F"/>
<path d="M108.128 17.6089C107.36 17.3439 106.579 17.091 105.811 16.826C106.079 16.4767 105.628 16.4165 105.543 16.1997C105.543 16.1274 105.543 16.0551 105.543 15.9708C106.689 16.1756 107.555 16.9705 108.604 17.3559C108.518 17.5848 108.311 17.5727 108.128 17.6089Z" fill="#B31D17"/>
<path d="M23.872 3.52899C22.555 4.01077 21.2257 4.49254 19.9086 4.96227C19.7989 4.87796 19.6891 4.78161 19.5794 4.6973C20.994 4.11917 22.433 3.58922 23.933 3.27606C23.9086 3.36037 23.8964 3.44468 23.872 3.52899Z" fill="#485B6D"/>
<path d="M23.933 3.27607C24.6891 2.987 25.4696 2.79429 26.2745 2.69794C25.5915 3.30016 24.6891 3.30016 23.872 3.529C23.8964 3.44469 23.9086 3.36038 23.933 3.27607Z" fill="#92535B"/>
<path d="M108.128 17.6089C108.311 17.5727 108.518 17.5848 108.616 17.368C109.153 17.633 109.75 17.8016 110.14 18.2954C109.372 18.3556 108.762 17.9341 108.128 17.6089Z" fill="#EF7E7A"/>
<path d="M8.29887 12.6948C7.32326 12.1407 6.31107 11.6469 5.17692 11.0567C5.76229 10.7436 6.27448 10.6111 6.79887 10.587C12.0672 10.3461 17.3355 10.1895 22.5916 10.3823C26.2623 10.5147 29.9208 10.9724 33.5794 11.2856C33.7135 12.2853 33.9208 13.2729 33.8233 14.2967C32.0428 14.3328 30.6769 15.2482 29.3233 16.284C28.2257 17.1271 28.5428 18.4881 27.9208 19.4878C26.0672 18.6086 24.2013 17.9582 22.0672 17.9943C20.0306 18.0304 18.2257 18.5965 16.494 19.5721C16.2257 19.7287 15.9208 19.813 15.6281 19.9334C14.4818 16.2479 11.3964 14.4533 8.29887 12.6948Z" fill="#9E1E15"/>
<path d="M86.9208 12.7188C91.4086 12.9477 95.9086 13.044 100.274 14.2966C101.738 14.7182 103.153 15.2843 104.531 15.9106C104.848 16.0551 105.201 16.1033 105.531 16.1997C105.616 16.4044 106.055 16.4646 105.799 16.826C105.092 16.6814 104.372 16.5369 103.665 16.3924C103.14 16.0551 102.555 16.1997 101.982 16.1997C101.823 16.1876 101.665 16.1635 101.506 16.1635C101.201 16.1756 100.799 16.1033 100.701 16.4767C100.628 16.7778 100.994 16.9103 101.213 17.0548C101.47 17.2234 101.762 17.368 102.043 17.5005C103.604 18.2231 105.177 18.9458 106.738 19.6564C104.75 19.825 102.933 20.4513 101.274 21.5474C98.055 18.3797 94.2745 17.2716 89.8598 18.4881C89.4818 18.5965 89.1037 18.6928 88.7257 18.7892C88.1037 18.2713 87.7623 17.5125 87.0184 17.0789C84.4696 15.6215 81.7013 14.9832 78.7989 14.7664C78.9208 14.0076 78.5672 13.4415 78.0915 12.9115C81.0428 12.6225 83.994 12.5623 86.9208 12.7188Z" fill="#9E1E15"/>
<path d="M29.6282 10.322C27.7013 10.0691 25.2745 8.00951 24.7623 6.2149C24.5428 5.43201 25.1525 5.38383 25.5794 5.19112C28.555 3.79398 31.7135 2.99905 34.9452 2.45705C40.0794 1.6019 45.2501 1.10808 50.4574 1.43328C59.1891 1.97528 66.9818 5.09477 74.0672 10.0571C75.1281 10.7918 76.0916 11.659 77.1038 12.4659C76.9574 12.5382 76.8233 12.6225 76.6769 12.6948C75.8721 12.6827 75.0672 12.7189 74.2623 12.6586C74.0062 12.6345 73.5794 12.9838 73.4452 12.4418C73.8477 11.5746 74.8721 12.3214 75.3842 11.7674C74.0428 10.599 72.7379 9.45483 71.1281 8.72013C69.2989 7.87702 67.7745 6.45578 65.7745 5.91379C63.8964 5.21521 62.055 4.43233 60.1525 3.81807C54.2257 1.91505 48.1403 1.57781 41.994 2.20412C40.4574 2.3607 38.8599 2.28843 37.3721 2.85452C37.055 2.92678 36.7501 2.4691 36.433 2.84247C32.7379 3.25198 29.2135 4.31188 25.7867 5.70903C25.5062 5.82948 25.1403 5.97401 25.5428 6.37147C25.7989 6.85325 25.9818 7.3832 26.3111 7.79271C27.0916 8.75626 27.9696 9.79207 29.3355 9.59936C31.0672 9.37052 32.6403 10.1173 34.2379 10.3702C35.8964 10.6352 37.5428 10.5268 39.1891 10.7556C41.5672 11.0929 43.9696 11.2735 46.3842 11.3578C49.4696 11.4662 52.5428 11.948 55.6281 11.9601C59.555 11.9842 63.4818 11.9601 67.4086 11.9601C67.5428 12.1407 67.8477 12.2973 67.7257 12.5261C67.5794 12.8152 67.2257 12.6466 66.9696 12.6466C62.555 12.5623 58.1403 12.478 53.7257 12.3575C51.3599 12.2973 49.0062 12.1287 46.6403 12.0323C42.6647 11.8758 38.7257 11.3819 34.7623 11.0206C34.2379 10.7195 33.6647 10.8158 33.1038 10.8158C31.9574 10.6593 30.7989 10.4786 29.6282 10.322Z" fill="#2D312F"/>
<path d="M3.96961 19.7287C6.53058 20.2225 9.03058 20.9934 11.3477 22.246C8.01839 22.1376 4.7257 21.6438 1.42082 21.3065C1.84765 20.1141 2.81107 19.5119 3.96961 19.7287Z" fill="#F16D60"/>
<path d="M46.5428 13.8028C51.2867 14.104 56.0428 14.1521 60.7867 14.3087C63.0306 14.381 65.2623 14.104 67.494 14.128C71.1038 14.1521 74.7135 14.393 78.3233 14.5496C78.2623 17.4884 78.0062 20.4152 77.6647 23.3299C77.4086 25.522 77.2623 27.7261 77.1769 29.9182C77.1403 30.8215 76.8721 31.1467 75.933 31.1467C63.994 31.1227 52.055 31.1227 40.1281 31.1467C39.4208 31.1467 39.0916 30.9781 38.9208 30.2555C38.6525 29.051 38.2379 27.8707 37.8721 26.6903C41.5672 27.0878 45.2013 27.8586 48.9208 28.1838C53.055 28.5452 57.1769 28.9908 61.3233 29.2799C62.9696 29.3883 64.6038 29.6291 66.2379 29.6773C68.7013 29.7496 71.1525 29.6894 73.7257 29.6894C73.4696 29.1835 73.1403 29.0992 72.7379 29.0269C70.7257 28.7017 68.7379 28.2922 66.7257 27.9911C63.2867 27.4852 59.8355 26.9794 56.3599 26.6903C53.8233 26.4856 51.2745 26.2929 48.7623 25.9315C45.3842 25.4498 41.9696 25.4016 38.5794 25.0764C36.872 21.7642 35.2379 18.4158 34.4208 14.7543C34.3721 14.5255 34.3599 14.2967 34.3233 14.0678C34.7867 13.9956 35.2501 13.8992 35.7135 13.851C39.3233 13.5138 42.9208 13.574 46.5428 13.8028ZM39.5184 16.3442C40.4574 16.3562 41.4086 16.3442 42.3477 16.3442C42.3477 16.3562 42.3477 16.3803 42.3477 16.3924C43.1403 16.3924 43.9208 16.4044 44.7135 16.3803C45.0428 16.3683 45.5306 16.4526 45.5184 15.9467C45.5062 15.5372 45.0428 15.5734 44.7745 15.5493C43.0062 15.4409 41.2379 15.465 39.4696 15.6456C39.2745 15.6697 39.055 15.6938 39.0428 15.9467C39.0428 16.2719 39.2745 16.3442 39.5184 16.3442Z" fill="#920000"/>
<path d="M88.7501 18.7892C86.433 20.0298 84.3842 21.4992 83.1159 23.896C82.3598 25.3414 81.9086 26.8349 81.8842 28.4488C81.8477 30.7132 80.2013 31.8574 78.0306 31.1106C77.5672 30.954 77.6403 30.6048 77.6159 30.2675C77.494 28.7499 77.7867 27.2564 77.9086 25.7509C78.1037 23.3661 78.433 20.9813 78.5306 18.5965C78.5916 17.3198 78.7867 16.0551 78.8111 14.7784C81.7135 14.9952 84.4818 15.6456 87.0306 17.091C87.7867 17.5125 88.1281 18.2834 88.7501 18.7892Z" fill="#920000"/>
<path d="M29.3233 16.296C30.6769 15.2602 32.0428 14.3448 33.8233 14.3087C34.4818 17.0187 35.433 19.6323 36.6282 22.1616C37.0916 23.1493 37.6038 24.1008 38.0916 25.0764C37.1403 25.0764 36.2013 25.0764 35.2501 25.0884C35.0184 25.0884 34.7379 25.1366 34.7257 25.4377C34.7135 25.6666 34.9452 25.7268 35.1403 25.787C35.8842 26.0158 36.555 26.4856 37.3721 26.4735C37.7379 27.8105 38.0916 29.1594 38.4696 30.4964C38.6038 30.9781 38.3964 31.1468 37.9452 31.1468C37.0428 31.1468 36.1282 31.207 35.2257 31.1227C34.1403 31.0263 33.4696 30.2314 33.3964 28.6295C33.2257 24.5946 31.1282 21.7401 27.9086 19.5119C28.5428 18.5002 28.2257 17.1391 29.3233 16.296Z" fill="#920000"/>
<path d="M56.3599 26.6904C59.8355 26.9794 63.2745 27.4732 66.7257 27.9912C68.7379 28.2923 70.7379 28.7018 72.7379 29.027C73.1525 29.0992 73.4818 29.1835 73.7257 29.6894C71.1525 29.6894 68.6891 29.7376 66.2379 29.6774C64.5916 29.6292 62.9574 29.4003 61.3233 29.2799C57.1769 28.9908 53.055 28.5572 48.9208 28.1839C45.2013 27.8587 41.5672 27.0878 37.8721 26.6904C37.6891 25.9677 38.5794 25.7148 38.5794 25.0764C41.9696 25.4016 45.3842 25.4498 48.7623 25.9316C51.2867 26.2929 53.8233 26.4736 56.3599 26.6904Z" fill="#F06D62"/>
<path d="M57.7867 13.1163C64.0916 13.2368 70.3842 13.2368 76.6891 12.8875C77.6769 13.02 78.433 13.3813 78.3233 14.5496C74.7135 14.3931 71.1037 14.1522 67.494 14.1281C65.2623 14.116 63.0184 14.3931 60.7867 14.3087C56.0306 14.1522 51.2745 14.0919 46.5428 13.8029C42.9208 13.574 39.3233 13.5138 35.7135 13.8511C35.2501 13.8992 34.7867 13.9956 34.3233 14.0679C34.1403 13.2247 34.0062 12.3816 34.0794 11.5265C37.3598 11.8276 40.6281 12.213 43.9086 12.4298C48.5306 12.7189 53.1647 13.02 57.7867 13.1163Z" fill="#F06D61"/>
<path d="M46.6647 12.0564C49.0306 12.1528 51.3842 12.3094 53.7501 12.3816C58.1647 12.5021 62.5793 12.5864 66.994 12.6707C67.2501 12.6707 67.6037 12.8393 67.7501 12.5502C67.8598 12.3214 67.555 12.1648 67.433 11.9842C67.3842 11.8035 67.3232 11.6108 67.2867 11.4301C66.8964 9.68369 67.6525 8.94898 69.3598 9.51507C70.6281 9.92457 71.8232 10.5147 72.8598 11.3819C73.2013 11.659 73.4696 11.9842 73.4574 12.4539C73.5915 12.9959 74.0062 12.6586 74.2745 12.6707C75.0793 12.7309 75.8842 12.7068 76.6891 12.7068C76.6891 12.767 76.6891 12.8273 76.7013 12.8875C70.4086 13.2368 64.1037 13.2368 57.7989 13.1163C53.1647 13.02 48.5428 12.7309 43.9208 12.4298C40.6403 12.213 37.372 11.8396 34.0915 11.5265C34.0915 11.0327 34.4696 11.0808 34.7989 11.0447C38.7501 11.406 42.6891 11.8999 46.6647 12.0564Z" fill="#920000"/>
<path d="M32.4208 32.4235C32.433 32.4235 32.4452 32.4235 32.4574 32.4235C32.8355 32.3994 33.2135 32.3512 33.5916 32.3512C49.6038 32.3512 65.6038 32.3512 81.616 32.3633C82.1038 32.3633 82.7867 32.0862 82.9208 32.9293C82.8233 32.9414 82.7379 32.9414 82.6404 32.9534C82.2989 32.9775 81.9696 33.0137 81.6282 33.0137C65.5794 33.0137 49.5306 33.0257 33.4818 32.9896C33.1282 32.9896 32.4696 33.4232 32.3843 32.5921C32.4208 32.5439 32.433 32.4837 32.4208 32.4235Z" fill="#170F19"/>
<path d="M34.7257 25.4136C34.7379 25.1125 35.0062 25.0764 35.2501 25.0644C36.2013 25.0523 37.1403 25.0644 38.0916 25.0523C38.1281 25.6545 37.3842 25.8593 37.3842 26.4374C36.5672 26.4495 35.8964 25.9797 35.1525 25.7509C34.9574 25.7027 34.7135 25.6545 34.7257 25.4136Z" fill="#F26B5F"/>
<path d="M108.884 30.2073C108.421 30.2194 108.116 30.0387 108.482 29.6292C109.579 28.4007 110.506 26.9674 112.043 26.1965C112.506 25.9677 113.079 25.6786 113.384 26.4495C113.165 27.5094 112.653 28.4729 112.262 29.4726C112.116 29.846 111.909 30.1591 111.445 30.2073C110.604 30.2073 109.738 30.1953 108.884 30.2073Z" fill="#343331"/>
<path d="M112.043 26.2085C110.506 26.9794 109.579 28.4127 108.482 29.6412C108.116 30.0507 108.421 30.2193 108.884 30.2193C109.738 30.2073 110.604 30.2314 111.457 30.2314C110.323 30.6288 109.14 30.3759 107.994 30.3879C107.457 30.3879 107.335 30.0025 107.579 29.581C108.494 27.9309 109.75 26.5699 111.36 25.5581C111.86 25.245 112.494 25.245 113.079 25.4136C113.689 25.5822 113.738 25.9917 113.396 26.4735C113.079 25.6786 112.506 25.9797 112.043 26.2085Z" fill="#4F4E4C"/>
<path d="M101.238 17.0669C101.018 16.9223 100.653 16.7899 100.726 16.4888C100.811 16.1154 101.214 16.1876 101.531 16.1756C101.689 16.1756 101.848 16.1997 102.006 16.2117C101.945 16.7417 102.128 17.0307 102.677 17.2475C103.982 17.7655 105.226 18.4159 106.518 18.9458C106.86 19.0903 107.274 19.4758 107.689 19.006C108.165 19.2349 108.299 19.6685 108.409 20.1262C107.86 19.9816 107.323 19.8371 106.774 19.6926C105.214 18.9699 103.64 18.2593 102.079 17.5366C101.787 17.38 101.494 17.2355 101.238 17.0669Z" fill="#ECE5D7"/>
<path d="M25.0672 22.9927C24.4696 23.7154 24.4086 24.149 24.8599 24.7873C25.1525 24.6308 25.4452 24.4862 25.7501 24.3297C25.994 24.1851 26.2379 24.0406 26.4818 23.8961C27.6769 24.8717 28.7013 25.9556 28.9208 27.5696C28.9696 28.1236 28.7013 28.4247 28.1769 28.5572C27.8964 28.7499 27.6281 28.9427 27.3233 29.1474C27.6281 29.3642 27.9086 29.5449 28.1769 29.7376C28.7013 29.9544 28.9818 30.3157 28.8964 30.8938C28.3964 33.1582 26.8355 34.5312 24.8599 35.555C23.7135 36.0127 22.5062 35.9886 21.3111 36.0127C17.616 35.3503 15.1403 32.4114 15.3233 28.8463C15.5672 23.9563 20.4818 21.0054 25.0672 22.9927ZM17.1403 25.5823C16.9696 26.04 16.3842 26.2568 16.8233 26.6422C16.9818 26.7867 17.4086 26.7988 17.7013 26.4856C17.5428 26.2327 17.3842 25.9797 17.1403 25.5823ZM15.9086 27.5214C17.0794 28.4247 18.0672 28.9908 19.3355 28.8222C19.555 28.7861 19.8477 28.8704 19.9086 28.5693C19.9696 28.2923 19.6891 28.2079 19.5062 28.0634C18.5184 27.2564 17.3842 27.3046 15.9086 27.5214ZM19.5184 23.7274C19.1769 23.5468 18.8598 23.9201 18.6159 24.2333C18.9452 24.4381 19.1647 24.7271 19.5794 24.7392C19.7379 24.3778 19.8599 23.9081 19.5184 23.7274ZM17.6403 24.703C18.1403 26.0881 18.7867 27.0396 20.0062 27.5214C20.1769 27.5937 20.3477 27.7503 20.5184 27.5696C20.6769 27.401 20.5916 27.2203 20.5062 27.0396C19.994 25.8713 19.0794 25.1728 17.6403 24.703ZM21.1159 26.606C21.2379 26.7506 21.3111 26.9794 21.555 26.9312C21.8721 26.871 21.7989 26.594 21.8355 26.3652C22.0062 25.1125 21.4574 24.1249 20.5184 22.9686C20.2135 24.4621 20.3111 25.5943 21.1159 26.606ZM22.0794 29.9423C22.5916 30.0387 22.8964 29.7858 22.9574 29.2679C22.9696 28.7981 22.8477 28.4127 22.2989 28.3645C21.7989 28.3284 21.4452 28.5934 21.3721 29.0511C21.2867 29.5449 21.616 29.858 22.0794 29.9423ZM22.6038 23.1011C22.494 22.9205 22.0428 22.9084 21.8599 23.0891C21.4696 23.4745 22.0306 23.7274 22.0916 24.1851C22.4452 23.7515 22.8233 23.4866 22.6038 23.1011ZM23.7623 23.2818C23.0306 24.1731 22.3355 25.0644 22.5184 26.2808C22.555 26.5338 22.4208 26.871 22.8111 26.9433C23.1769 27.0156 23.2135 26.6542 23.372 26.4615C24.1403 25.4859 23.9574 24.3899 23.7623 23.2818ZM23.8721 26.9915C23.7989 27.1601 23.6403 27.3287 23.8233 27.5094C24.0428 27.7382 24.2257 27.5576 24.4452 27.4732C25.6281 27.0035 26.2135 26.0279 26.7379 24.703C25.3355 25.1728 24.3964 25.8232 23.8721 26.9915ZM27.3111 25.775C26.8842 25.787 26.7745 26.2206 26.7257 26.7506C27.1038 26.582 27.555 26.9794 27.7501 26.4736C27.8599 26.1845 27.5672 25.7629 27.3111 25.775ZM28.4818 27.4853C26.9452 27.3046 25.7623 27.2805 24.7501 28.1477C24.616 28.2682 24.3721 28.3163 24.4452 28.5693C24.5184 28.7981 24.7257 28.7981 24.9208 28.8222C26.2379 28.9908 27.2745 28.4729 28.4818 27.4853ZM24.9574 29.5087C24.7745 29.5328 24.5428 29.4846 24.4574 29.7135C24.3477 30.0026 24.5794 30.0869 24.7745 30.2314C25.7867 31.0143 26.9452 30.9902 28.4452 30.8457C27.2501 29.9182 26.2501 29.3401 24.9574 29.5087ZM27.3355 32.6162C27.6038 32.6041 27.8355 32.1585 27.7501 31.8935C27.5794 31.3997 27.1159 31.6888 26.5428 31.6406C26.8477 32.1344 26.8842 32.6282 27.3355 32.6162ZM26.6769 33.2666C26.5794 32.6282 24.933 30.8818 24.2501 30.7373C23.9208 30.665 23.7257 30.7493 23.7623 31.1347C23.8477 31.7851 25.7257 33.5918 26.3599 33.6279C26.5794 33.6038 26.7135 33.5316 26.6769 33.2666ZM24.9574 34.6396C25.1647 34.736 25.5794 34.5192 25.6038 34.2904C25.6525 33.7965 25.1891 33.7604 24.7867 33.6279C24.7501 34.0254 24.494 34.4349 24.9574 34.6396ZM23.2745 31.7008C23.1525 31.5442 23.0794 31.3636 22.8477 31.3877C22.5062 31.4238 22.5672 31.6888 22.5306 31.9056C22.3477 33.1943 22.9696 34.1699 23.8842 35.3503C24.0062 33.8688 24.0672 32.7125 23.2745 31.7008ZM21.7135 35.3503C22.055 35.3021 22.4208 35.4948 22.7623 35.2178C22.6525 34.8324 22.494 34.5433 22.0916 34.182C21.9696 34.6276 21.5916 34.8564 21.7135 35.3503ZM20.5306 35.0371C21.0672 35.2057 21.0672 34.5192 21.2989 34.206C21.6769 33.7002 21.9208 33.1341 21.8233 32.4717C21.7623 32.1103 22.0428 31.5563 21.6281 31.4358C21.0794 31.2672 21.0916 31.9537 20.8355 32.2428C20.3964 32.7366 20.2989 33.3389 20.372 33.9772C20.4208 34.3506 20.1525 34.9287 20.5306 35.0371ZM19.3964 34.6396C19.7501 34.6637 19.6525 34.3385 19.6769 34.1217C19.6525 33.8929 19.6891 33.5918 19.3233 33.7122C19.0916 33.7965 18.7257 33.8688 18.7623 34.206C18.8111 34.4951 19.1403 34.6156 19.3964 34.6396ZM20.494 31.3636C20.5672 31.1829 20.6891 31.0022 20.555 30.8216C20.3477 30.5566 20.1525 30.7854 19.9452 30.8698C18.7623 31.3515 18.1769 32.3271 17.5916 33.7002C19.0062 33.1582 19.994 32.556 20.494 31.3636ZM17.1647 32.7005C17.433 32.3753 17.6769 32.1224 17.6891 31.7249C17.3233 31.6526 16.8477 31.484 16.6769 31.8333C16.5306 32.1224 16.8721 32.4596 17.1647 32.7005ZM19.5672 30.2796C19.7623 30.135 19.994 30.0387 19.9208 29.7617C19.8477 29.4606 19.5672 29.5449 19.3355 29.5087C18.0672 29.3522 17.1038 29.9544 15.933 30.8336C17.4086 31.0143 18.555 31.0504 19.5672 30.2796ZM15.9818 29.581C15.994 29.6292 16.0916 29.6653 16.1891 29.7376C16.433 29.581 16.7013 29.4244 17.1647 29.1233C16.6891 28.9667 16.433 28.5452 16.0794 28.7259C15.7989 28.8824 15.9208 29.2919 15.9818 29.581Z" fill="#EFEEED"/>
<path d="M26.555 21.8244C27.0428 22.2459 27.5062 22.6916 28.0062 23.1011C28.2745 23.3179 28.5184 23.5226 28.2623 23.8599C27.994 24.2092 27.6769 24.1489 27.3476 23.9081C26.2867 23.1131 25.2135 22.3302 23.8354 22.1134C21.4696 21.7521 19.2989 22.1375 17.3964 23.6551C17.055 23.9201 16.6891 24.5223 16.2501 24.0526C15.7867 23.5588 16.2623 23.1493 16.6891 22.8241C16.7623 22.7638 16.7623 22.6073 16.7989 22.4989C19.8964 20.3188 23.1403 20.1743 26.5184 21.7883C26.5306 21.8003 26.5428 21.8123 26.555 21.8244Z" fill="#4F4E4C"/>
<path d="M24.8477 35.832C25.7379 35.6152 26.555 35.278 27.1769 34.5674C27.4696 34.2301 27.8964 33.929 28.2745 34.3626C28.5794 34.7119 28.2867 35.0973 27.9818 35.3743C26.0428 37.1208 23.7501 37.9036 21.1647 37.5544C19.4452 37.3255 17.7745 36.8317 16.555 35.4466C16.2745 35.1214 15.8477 34.8082 16.2867 34.3746C16.7257 33.929 17.0428 34.3626 17.3843 34.6276C18.4574 35.4948 19.616 36.2054 21.055 36.2777C22.3964 36.7715 23.6404 36.4222 24.8477 35.832Z" fill="#4E4E4C"/>
<path d="M28.1525 29.7496C28.6404 29.3521 28.5306 28.9547 28.1525 28.5572C28.6769 28.4247 28.9574 28.1236 28.8965 27.5696C29.2501 28.6054 29.2745 29.6292 28.9452 30.665C28.9208 30.7493 28.8964 30.8216 28.8599 30.9059C28.9574 30.3277 28.6769 29.9664 28.1525 29.7496Z" fill="#CCCBC9"/>
<path d="M24.9208 23.7756C24.5794 23.9442 24.7501 24.4381 24.8598 24.7873C24.4208 24.149 24.4696 23.7154 25.0672 22.9927C25.6038 23.1975 26.1769 23.33 26.4696 23.9081C26.2257 24.0526 25.9818 24.1972 25.7379 24.3417C25.6159 23.9322 25.2135 23.6311 24.9208 23.7756Z" fill="#D3D2D0"/>
<path d="M24.8477 35.832C23.6403 36.4222 22.3964 36.7715 21.055 36.2776C21.1403 36.1933 21.2135 36.109 21.2989 36.0247C22.494 36.0006 23.7013 36.0247 24.8477 35.567C24.8477 35.6634 24.8477 35.7477 24.8477 35.832Z" fill="#3F3E3C"/>
<path d="M93.1891 22.3182C96.994 22.4266 100.116 25.5702 100.055 29.2196C99.994 33.0136 96.7989 36.0849 92.9818 36.0247C89.1037 35.9524 86.0672 32.857 86.1525 29.0269C86.2257 25.2932 89.4696 22.2098 93.1891 22.3182ZM90.3598 23.7033C90.055 23.5708 89.7379 23.9081 89.5184 24.2092C89.7867 24.4982 90.0794 24.7271 90.5916 24.7391C90.4696 24.3778 90.7745 23.896 90.3598 23.7033ZM88.4452 24.6548C89.0794 25.9797 89.5916 27.0035 90.7989 27.4612C91.0184 27.5455 91.2135 27.7502 91.433 27.5214C91.6525 27.2925 91.3964 27.0998 91.3233 26.9071C90.8477 25.7268 89.8477 25.1848 88.4452 24.6548ZM91.9086 26.5217C92.0672 26.7264 92.1403 27.0637 92.5062 26.9312C92.7867 26.8348 92.7135 26.5578 92.7501 26.341C92.9208 25.0764 92.2257 24.173 91.3598 22.9566C91.2501 24.438 91.1403 25.5461 91.9086 26.5217ZM91.994 30.412C91.994 30.412 92.1525 30.5325 92.3355 30.677C92.4574 29.8098 93.4086 30.123 93.7623 29.5448C94.0184 29.1233 93.7745 28.7981 93.5062 28.5331C93.2257 28.2561 92.8111 28.244 92.555 28.509C92.0672 29.039 92.3964 29.8339 91.994 30.412ZM93.3842 23.065C93.1891 22.8963 92.7379 22.8963 92.6403 23.089C92.4452 23.4745 92.7867 23.7635 93.2867 24.2694C93.1769 23.6913 93.8355 23.4624 93.3842 23.065ZM94.7379 22.9806C93.8477 24.1369 93.2257 25.0884 93.4208 26.3531C93.4574 26.5699 93.372 26.8589 93.6769 26.9312C93.9696 27.0035 94.0428 26.7144 94.1769 26.5458C95.0062 25.5581 94.9818 24.438 94.7379 22.9806ZM95.6159 23.6672C95.6159 24.0285 95.4086 24.3898 95.7013 24.7391C96.0794 24.6909 96.3477 24.4862 96.6403 24.173C96.3233 23.8719 96.0672 23.6551 95.6159 23.6672ZM94.7867 26.9432C94.6891 27.16 94.5428 27.3768 94.7745 27.5575C94.9574 27.702 95.1159 27.5334 95.2989 27.4612C96.5184 26.9914 97.1159 26.0279 97.5916 24.715C96.2501 25.1727 95.2867 25.7629 94.7867 26.9432ZM98.055 25.5943C97.8598 25.9315 97.6891 26.2206 97.4452 26.6421C97.9818 26.6903 98.4696 26.9192 98.6281 26.4735C98.7501 26.1724 98.4574 25.8111 98.055 25.5943ZM95.6769 28.1115C95.5184 28.232 95.2989 28.3283 95.3477 28.5451C95.4086 28.8342 95.6891 28.7981 95.9208 28.8342C97.1891 29.0028 98.1891 28.4608 99.3111 27.5695C97.8477 27.2323 96.7013 27.3166 95.6769 28.1115ZM99.2379 28.7619C98.8111 28.509 98.555 28.9547 98.0306 29.2678C98.6159 29.328 98.8233 29.8941 99.2379 29.605C99.4696 29.4364 99.4574 28.8824 99.2379 28.7619ZM96.0184 29.5087C95.7623 29.5448 95.4208 29.4364 95.3477 29.7978C95.2867 30.135 95.6281 30.2073 95.8477 30.3518C96.8355 31.0624 97.9208 31.0022 99.055 30.7131C98.1159 30.0748 97.2501 29.316 96.0184 29.5087ZM98.1403 32.7366C98.372 32.4596 98.7623 32.1705 98.6159 31.8694C98.4208 31.4719 97.9452 31.6767 97.5672 31.7008C97.5794 32.1464 97.872 32.4114 98.1403 32.7366ZM95.872 34.6637C96.1159 34.6396 96.494 34.5432 96.5184 34.2542C96.5672 33.8688 96.1281 33.8447 95.9086 33.676C95.5062 33.652 95.5794 33.941 95.5794 34.1578C95.5794 34.3746 95.5184 34.6998 95.872 34.6637ZM97.7257 33.7604C97.0794 32.4114 96.5916 31.4117 95.4452 30.942C95.2135 30.8456 94.9818 30.5325 94.7257 30.8456C94.5306 31.0624 94.7501 31.2672 94.8355 31.484C95.2989 32.6643 96.3355 33.1461 97.7257 33.7604ZM94.1403 31.7249C94.0184 31.5803 93.9574 31.3515 93.7135 31.3876C93.3964 31.4358 93.4452 31.7128 93.4208 31.9296C93.2623 33.2063 93.7867 34.218 94.7623 35.3502C94.994 33.8688 94.9574 32.7245 94.1403 31.7249ZM92.6159 35.29C92.7745 35.5068 93.2013 35.4104 93.5062 35.3141C93.555 35.302 93.5672 35.1936 93.6159 35.0973C93.4818 34.8444 93.3233 34.5794 93.1769 34.3144C92.9086 34.6878 92.3233 34.8805 92.6159 35.29ZM91.3355 35.3984C92.2379 34.194 92.9208 33.2906 92.7501 32.038C92.7135 31.7971 92.8477 31.4599 92.4574 31.3876C92.0916 31.3154 92.055 31.6646 91.8964 31.8694C91.1403 32.8329 91.2623 33.941 91.3355 35.3984ZM89.7013 34.3024C89.7379 34.483 90.1159 34.7841 90.372 34.6276C90.7745 34.3867 90.5428 33.9892 90.5184 33.5797C90.1159 33.7844 89.5794 33.7604 89.7013 34.3024ZM88.8964 33.6038C89.5428 33.6038 91.4696 31.7249 91.5184 30.9179C91.5184 30.7854 91.372 30.689 91.0794 30.7252C90.4086 30.8215 88.7623 32.5318 88.6159 33.2424C88.555 33.5195 88.7013 33.6038 88.8964 33.6038ZM87.9208 32.568C88.3842 32.5559 88.4452 32.1223 88.5062 31.6526C88.2013 31.8573 87.6525 31.3635 87.5428 31.9537C87.5062 32.1344 87.7867 32.568 87.9208 32.568ZM90.5916 30.1952C90.7623 30.0748 90.8964 29.9543 90.8355 29.7375C90.7867 29.5448 90.6281 29.5448 90.4696 29.5207C89.1281 29.3401 88.0306 29.8218 86.9208 30.8095C88.3598 31.0986 89.5306 30.954 90.5916 30.1952ZM86.9208 29.7255C87.3111 29.7014 87.555 29.4485 87.9452 29.1955C87.6281 28.9065 87.3355 28.6776 86.9086 28.6535C86.7745 29.0149 86.7257 29.3642 86.9208 29.7255ZM90.2867 28.8222C90.5062 28.7981 90.7867 28.8824 90.8477 28.5572C90.8842 28.3283 90.6525 28.2681 90.5062 28.1477C89.494 27.3287 88.3355 27.2684 86.8598 27.5214C87.9696 28.509 89.0062 28.9667 90.2867 28.8222ZM87.9574 25.787C87.6891 25.799 87.5672 26.1483 87.5184 26.4012C87.4574 26.7505 87.7745 26.7024 87.994 26.7264C88.2013 26.7024 88.555 26.7987 88.494 26.4494C88.4452 26.1604 88.3233 25.7629 87.9574 25.787Z" fill="#EFEEED"/>
<path d="M98.0184 23.7756C95.2501 21.2945 90.555 21.439 88.2257 23.7756C87.5428 24.4621 87.1038 24.2333 86.8599 23.1854C90.055 20.1502 95.2745 19.5119 99.3842 23.1975C99.1403 24.2453 98.7501 24.438 98.0184 23.7756Z" fill="#4F4E4C"/>
<path d="M88.1891 34.6396C91.1159 37.0123 95.0672 37.2171 98.055 34.471C98.4086 34.1458 98.8476 33.9892 99.2013 34.3867C99.555 34.7721 99.2135 35.1575 98.933 35.3864C97.3111 36.6631 95.5184 37.5784 93.6769 37.6627C91.1891 37.6146 89.2257 36.928 87.5062 35.5791C87.1647 35.3141 86.6159 34.9768 87.0184 34.4469C87.4452 33.8808 87.8232 34.3505 88.1891 34.6396Z" fill="#4E4D4B"/>
<path d="M106.506 18.9337C105.214 18.4038 103.957 17.7534 102.665 17.2355C102.116 17.0187 101.933 16.7296 101.994 16.1997C102.567 16.1876 103.14 16.0551 103.677 16.3924C103.86 17.3318 104.86 17.2234 105.445 17.657C106.116 18.1629 106.933 18.5483 107.689 18.9939C107.274 19.4637 106.848 19.0662 106.506 18.9337Z" fill="#FAE0BE"/>
<path d="M72.8477 11.3578C71.8111 10.5027 70.616 9.91249 69.3477 9.49094C67.6403 8.92485 66.8721 9.6716 67.2745 11.406C67.3111 11.5987 67.372 11.7794 67.4208 11.96C63.494 11.96 59.5672 11.9841 55.6403 11.96C52.5428 11.9359 49.4818 11.4662 46.3964 11.3578C43.9818 11.2735 41.5794 11.0928 39.2013 10.7556C37.5672 10.5268 35.9086 10.6352 34.2501 10.3702C32.6403 10.1172 31.0794 9.35845 29.3477 9.59934C27.9818 9.78 27.1038 8.74419 26.3233 7.79268C25.994 7.38317 25.7989 6.84118 25.555 6.37144C26.0428 6.31122 26.4818 6.50393 26.933 6.62438C29.055 7.19046 31.1891 7.64815 33.3355 8.0697C33.933 8.19015 34.2745 8.08175 34.3964 7.5277C34.7379 6.05829 35.494 4.80568 36.2989 3.56511C36.433 3.3724 36.7013 3.14355 36.433 2.84244C36.7501 2.46907 37.055 2.92675 37.3721 2.85449C36.6647 3.91439 35.872 4.93816 35.3842 6.13056C34.5306 8.20219 34.2623 8.27446 36.8599 8.43103C41.4086 8.70805 45.933 8.08175 50.433 7.46748C55.1281 6.81709 59.7989 6.09442 64.555 6.11851C64.9696 6.11851 65.433 6.27509 65.7745 5.90171C67.7745 6.44371 69.2989 7.86495 71.1281 8.70805C72.7379 9.44276 74.0428 10.587 75.3842 11.7553C74.8599 12.3214 73.8355 11.5626 73.4452 12.4298C73.4574 11.96 73.1891 11.6469 72.8477 11.3578Z" fill="#2D3D4D"/>
<path d="M64.555 6.13059C59.7989 6.09446 55.1159 6.82917 50.433 7.47956C45.933 8.09383 41.4208 8.72013 36.8598 8.44311C34.2623 8.28654 34.5306 8.21427 35.3842 6.14264C35.872 4.95024 36.6647 3.92647 37.372 2.86657C38.8598 2.30048 40.4452 2.37275 41.994 2.21617C48.1403 1.57782 54.2379 1.92711 60.1525 3.83012C62.055 4.44438 63.8964 5.21522 65.7745 5.92584C65.433 6.28717 64.9696 6.13059 64.555 6.13059Z" fill="#47617C"/>
<path d="M36.3111 3.56513C35.5062 4.8057 34.7501 6.07036 34.4086 7.52773C34.2867 8.06973 33.9452 8.17813 33.3477 8.06973C31.2013 7.64817 29.055 7.19049 26.9452 6.6244C26.494 6.50396 26.055 6.31125 25.5672 6.37147C25.1525 5.98605 25.5306 5.82947 25.8111 5.70903C29.2379 4.31188 32.7501 3.25198 36.4574 2.84247C36.7135 3.14358 36.433 3.37242 36.3111 3.56513Z" fill="#47617B"/>
<path d="M39.4696 15.6577C41.2379 15.477 43.0062 15.4409 44.7745 15.5613C45.0428 15.5734 45.5184 15.5493 45.5184 15.9588C45.5306 16.4647 45.0428 16.3924 44.7135 16.3924C43.933 16.4165 43.1403 16.4044 42.3477 16.4044C42.3477 16.3924 42.3477 16.3683 42.3477 16.3563C41.4086 16.3563 40.4574 16.3683 39.5184 16.3563C39.2745 16.3563 39.0306 16.272 39.0428 15.9708C39.055 15.7059 39.2745 15.6818 39.4696 15.6577Z" fill="#493430"/>
<path d="M19.5062 28.0634C19.6769 28.2079 19.9696 28.2802 19.9086 28.5693C19.8476 28.8704 19.555 28.7861 19.3354 28.8222C18.0672 28.9908 17.0794 28.4247 15.9086 27.5214C17.3842 27.3046 18.5184 27.2564 19.5062 28.0634Z" fill="#262523"/>
<path d="M24.933 28.8222C24.7379 28.7981 24.5184 28.7981 24.4574 28.5693C24.372 28.3163 24.6159 28.2682 24.7623 28.1477C25.7745 27.2805 26.9452 27.3046 28.494 27.4853C27.2745 28.4729 26.2379 28.9908 24.933 28.8222Z" fill="#262523"/>
<path d="M21.8233 26.3772C21.7867 26.594 21.8598 26.8831 21.5428 26.9433C21.3111 26.9915 21.2257 26.7626 21.1037 26.6181C20.2989 25.6064 20.2013 24.4742 20.494 22.9927C21.4452 24.137 21.994 25.1246 21.8233 26.3772Z" fill="#252422"/>
<path d="M20.372 33.9892C20.2989 33.3509 20.3842 32.7487 20.8355 32.2548C21.0916 31.9658 21.0794 31.2792 21.6281 31.4479C22.0428 31.5803 21.7623 32.1223 21.8233 32.4837C21.933 33.1341 21.6769 33.7122 21.2989 34.2181C21.0672 34.5312 21.0672 35.2057 20.5306 35.0491C20.1525 34.9287 20.4208 34.3506 20.372 33.9892Z" fill="#252421"/>
<path d="M19.9452 30.8577C20.1525 30.7734 20.3477 30.5445 20.555 30.8095C20.6891 30.9781 20.5672 31.1708 20.494 31.3515C20.0062 32.5559 19.0062 33.1461 17.5916 33.6881C18.1769 32.315 18.7623 31.3515 19.9452 30.8577Z" fill="#252422"/>
<path d="M24.7745 30.2434C24.5794 30.0989 24.3599 30.0146 24.4574 29.7255C24.5428 29.4846 24.7623 29.5448 24.9574 29.5207C26.2623 29.3521 27.2623 29.9302 28.4452 30.8577C26.9452 31.0022 25.7867 31.0263 24.7745 30.2434Z" fill="#242421"/>
<path d="M23.7623 31.1347C23.7135 30.7493 23.9086 30.665 24.2501 30.7372C24.9208 30.8938 26.5794 32.6282 26.6769 33.2665C26.7135 33.5195 26.5916 33.6038 26.372 33.6279C25.7257 33.5917 23.8476 31.773 23.7623 31.1347Z" fill="#272624"/>
<path d="M20.5306 27.5696C20.3598 27.7502 20.1891 27.5937 20.0184 27.5214C18.7989 27.0396 18.1525 26.0881 17.6525 24.703C19.0916 25.1727 20.0062 25.8713 20.5306 27.0396C20.6037 27.2082 20.6891 27.4009 20.5306 27.5696Z" fill="#262524"/>
<path d="M22.8111 26.9433C22.4208 26.871 22.555 26.5338 22.5184 26.2808C22.3355 25.0644 23.0306 24.1731 23.7623 23.2818C23.9452 24.3899 24.1281 25.4859 23.372 26.4495C23.2135 26.6542 23.1769 27.0156 22.8111 26.9433Z" fill="#282624"/>
<path d="M22.5184 31.9176C22.555 31.6888 22.494 31.4238 22.8355 31.3997C23.0672 31.3756 23.1403 31.5563 23.2623 31.7128C24.055 32.7246 23.994 33.8808 23.8721 35.3623C22.9574 34.1699 22.3355 33.2064 22.5184 31.9176Z" fill="#262523"/>
<path d="M19.3355 29.5087C19.555 29.5328 19.8355 29.4606 19.9208 29.7617C19.994 30.0387 19.7501 30.1471 19.5672 30.2796C18.555 31.0504 17.4208 31.0143 15.933 30.8336C17.1159 29.9544 18.0794 29.3522 19.3355 29.5087Z" fill="#232321"/>
<path d="M24.4452 27.4732C24.2257 27.5575 24.0428 27.7382 23.8233 27.5093C23.6404 27.3166 23.7989 27.1601 23.8721 26.9914C24.3965 25.8231 25.3355 25.1727 26.7379 24.703C26.2135 26.0279 25.6282 27.0035 24.4452 27.4732Z" fill="#262423"/>
<path d="M22.2989 28.3645C22.8476 28.4127 22.9818 28.7981 22.9574 29.2678C22.8842 29.7857 22.5916 30.0507 22.0794 29.9423C21.6159 29.858 21.2745 29.5448 21.372 29.051C21.4452 28.5933 21.7989 28.3163 22.2989 28.3645Z" fill="#B7B5B4"/>
<path d="M17.6891 31.7129C17.6647 32.1103 17.433 32.3633 17.1647 32.6885C16.872 32.4476 16.5306 32.1103 16.6769 31.8213C16.8477 31.484 17.3233 31.6526 17.6891 31.7129Z" fill="#21201F"/>
<path d="M16.0916 28.7379C16.4452 28.5572 16.6891 28.9667 17.1769 29.1354C16.7013 29.4244 16.4452 29.593 16.2013 29.7496C16.1038 29.6774 16.0062 29.6533 15.994 29.593C15.9208 29.2919 15.7989 28.8824 16.0916 28.7379Z" fill="#292826"/>
<path d="M28.1525 29.7496C27.8721 29.5569 27.6038 29.3642 27.2989 29.1595C27.6038 28.9427 27.8842 28.7499 28.1525 28.5693C28.5428 28.9547 28.6403 29.3522 28.1525 29.7496Z" fill="#2A2928"/>
<path d="M18.6159 24.2333C18.8598 23.9201 19.1769 23.5467 19.5184 23.7274C19.8599 23.9081 19.7379 24.3778 19.5794 24.7391C19.1647 24.7271 18.9452 24.4501 18.6159 24.2333Z" fill="#302F2E"/>
<path d="M22.7501 35.2298C22.4086 35.5068 22.0428 35.302 21.7013 35.3623C21.5794 34.8564 21.9574 34.6396 22.0794 34.206C22.4818 34.5553 22.6525 34.8443 22.7501 35.2298Z" fill="#2B292A"/>
<path d="M27.7379 31.8935C27.8233 32.1465 27.5916 32.6041 27.3233 32.6162C26.872 32.6282 26.8477 32.1344 26.5184 31.6406C27.1038 31.7008 27.5672 31.4118 27.7379 31.8935Z" fill="#3A3938"/>
<path d="M26.7257 26.7506C26.7867 26.2206 26.8964 25.787 27.3111 25.775C27.5672 25.7629 27.8598 26.1965 27.7501 26.4735C27.5428 26.9794 27.0916 26.5819 26.7257 26.7506Z" fill="#2F2E2E"/>
<path d="M25.6038 34.2903C25.5794 34.5192 25.1647 34.736 24.9574 34.6396C24.494 34.4349 24.7379 34.0133 24.7867 33.6158C25.1891 33.7604 25.6647 33.7965 25.6038 34.2903Z" fill="#201F1E"/>
<path d="M21.8598 23.089C22.0428 22.9084 22.494 22.9204 22.6037 23.1011C22.8233 23.4865 22.4452 23.7635 22.0915 24.1851C22.0306 23.7153 21.4574 23.4745 21.8598 23.089Z" fill="#201F1E"/>
<path d="M16.8233 26.6422C16.3842 26.2568 16.9574 26.04 17.1403 25.5823C17.3842 25.9797 17.5428 26.2327 17.7013 26.4856C17.4086 26.8108 16.9818 26.7867 16.8233 26.6422Z" fill="#1A1919"/>
<path d="M19.3233 33.7122C19.6891 33.5797 19.6526 33.8929 19.6769 34.1217C19.6526 34.3385 19.7501 34.6637 19.3965 34.6396C19.1404 34.6276 18.8111 34.5072 18.7745 34.206C18.7257 33.8688 19.0916 33.7965 19.3233 33.7122Z" fill="#242322"/>
<path d="M24.9208 23.7756C25.2135 23.631 25.616 23.9322 25.7379 24.3417C25.4452 24.4982 25.1526 24.6428 24.8477 24.7993C24.7623 24.438 24.5794 23.9442 24.9208 23.7756Z" fill="#1E1D1B"/>
<path d="M93.4208 31.9297C93.4452 31.7129 93.3964 31.4358 93.7135 31.3877C93.9452 31.3515 94.0184 31.5804 94.1403 31.7249C94.9696 32.7246 95.0062 33.8688 94.7623 35.3503C93.7867 34.2181 93.2623 33.2064 93.4208 31.9297Z" fill="#262423"/>
<path d="M95.2989 27.4732C95.1159 27.5455 94.9574 27.7141 94.7745 27.5696C94.5428 27.3769 94.6891 27.1721 94.7867 26.9553C95.2867 25.775 96.2501 25.1848 97.5916 24.7271C97.1159 26.0399 96.5184 27.0035 95.2989 27.4732Z" fill="#282726"/>
<path d="M90.5062 28.1477C90.6525 28.2681 90.8842 28.3283 90.8476 28.5572C90.7989 28.8703 90.5062 28.7981 90.2867 28.8222C89.0062 28.9787 87.9696 28.509 86.8598 27.5214C88.3476 27.2684 89.494 27.3287 90.5062 28.1477Z" fill="#262525"/>
<path d="M95.9086 28.8222C95.6769 28.7981 95.3964 28.8222 95.3354 28.5331C95.2989 28.3163 95.5062 28.22 95.6647 28.0995C96.7013 27.3166 97.8354 27.2203 99.2989 27.5455C98.1769 28.4488 97.1769 28.9908 95.9086 28.8222Z" fill="#272624"/>
<path d="M93.6769 26.9192C93.3721 26.8469 93.4452 26.5699 93.4208 26.3411C93.2379 25.0884 93.8477 24.1249 94.7379 22.9686C94.9818 24.426 95.0062 25.5341 94.1769 26.5217C94.0428 26.7024 93.9818 26.9914 93.6769 26.9192Z" fill="#282725"/>
<path d="M94.7257 30.8336C94.994 30.5325 95.2257 30.8457 95.4452 30.93C96.5916 31.3997 97.0794 32.3994 97.7257 33.7484C96.3355 33.1341 95.2989 32.6523 94.8355 31.4599C94.7501 31.2552 94.5306 31.0625 94.7257 30.8336Z" fill="#262523"/>
<path d="M91.0794 30.7252C91.372 30.677 91.5306 30.7854 91.5184 30.9179C91.4696 31.7369 89.555 33.6159 88.8964 33.6038C88.7013 33.6038 88.555 33.5195 88.6038 33.2425C88.7501 32.5319 90.4086 30.8216 91.0794 30.7252Z" fill="#282625"/>
<path d="M90.4818 29.5208C90.6403 29.5448 90.7989 29.5448 90.8477 29.7376C90.8964 29.9544 90.7745 30.0748 90.6037 30.1952C89.5428 30.954 88.372 31.0986 86.9452 30.8095C88.0428 29.8219 89.1281 29.3401 90.4818 29.5208Z" fill="#252421"/>
<path d="M91.3233 26.9071C91.4086 27.1119 91.6647 27.2926 91.433 27.5214C91.2135 27.7503 91.0184 27.5455 90.7989 27.4612C89.5794 27.0035 89.0794 25.9797 88.4452 24.6548C89.8477 25.1848 90.8477 25.7268 91.3233 26.9071Z" fill="#262423"/>
<path d="M92.4574 31.3756C92.8477 31.4479 92.7135 31.7851 92.7501 32.026C92.933 33.2786 92.2379 34.194 91.3355 35.3864C91.2623 33.929 91.1281 32.8209 91.8964 31.8453C92.055 31.6647 92.0916 31.3154 92.4574 31.3756Z" fill="#252422"/>
<path d="M92.7501 26.3411C92.7135 26.5579 92.7989 26.8349 92.5062 26.9312C92.1403 27.0517 92.0672 26.7144 91.9086 26.5217C91.1403 25.5461 91.2379 24.438 91.3599 22.9686C92.2257 24.1731 92.9208 25.0764 92.7501 26.3411Z" fill="#252423"/>
<path d="M95.8355 30.3518C95.6282 30.1952 95.2745 30.135 95.3355 29.7978C95.4086 29.4364 95.7501 29.5448 96.0062 29.5087C97.2501 29.328 98.116 30.0748 99.0428 30.7252C97.9086 31.0022 96.8233 31.0624 95.8355 30.3518Z" fill="#242321"/>
<path d="M93.5062 28.5331C93.7867 28.7981 94.0184 29.1233 93.7623 29.5449C93.4208 30.111 92.4574 29.8098 92.3354 30.677C92.1525 30.5325 91.9818 30.4121 91.994 30.4121C92.3964 29.8339 92.0671 29.027 92.555 28.5091C92.8232 28.2441 93.2257 28.2561 93.5062 28.5331Z" fill="#B6B5B4"/>
<path d="M89.5184 24.2092C89.7379 23.9081 90.0428 23.5588 90.3598 23.7033C90.7745 23.8961 90.4696 24.3778 90.5916 24.7512C90.0794 24.7392 89.7989 24.4983 89.5184 24.2092Z" fill="#2B2A28"/>
<path d="M98.0306 29.2558C98.555 28.9426 98.8111 28.497 99.2379 28.7499C99.4574 28.8824 99.4574 29.4244 99.2379 29.593C98.8355 29.8821 98.6159 29.3281 98.0306 29.2558Z" fill="#252423"/>
<path d="M87.9452 29.1835C87.555 29.4485 87.3111 29.6894 86.9208 29.7134C86.7257 29.3521 86.7623 29.0028 86.9086 28.6295C87.3355 28.6776 87.6281 28.8944 87.9452 29.1835Z" fill="#373635"/>
<path d="M98.6159 31.8694C98.7623 32.1705 98.3842 32.4596 98.1403 32.7366C97.8598 32.4114 97.5672 32.1464 97.5672 31.7008C97.9574 31.6767 98.433 31.4599 98.6159 31.8694Z" fill="#212020"/>
<path d="M88.5062 31.6526C88.4574 32.1224 88.3842 32.556 87.9208 32.568C87.7867 32.568 87.5062 32.1344 87.5428 31.9538C87.6525 31.3515 88.1891 31.8574 88.5062 31.6526Z" fill="#2B2A28"/>
<path d="M97.4452 26.6542C97.6891 26.2206 97.8598 25.9315 98.055 25.6063C98.4574 25.8231 98.7501 26.1845 98.6281 26.4976C98.4696 26.9192 97.9818 26.7024 97.4452 26.6542Z" fill="#3A3939"/>
<path d="M93.1769 34.3145C93.3233 34.5794 93.4696 34.8444 93.6159 35.0973C93.5672 35.1937 93.555 35.3021 93.5062 35.3141C93.2013 35.4105 92.7745 35.5068 92.6159 35.29C92.3233 34.8805 92.9086 34.6878 93.1769 34.3145Z" fill="#343233"/>
<path d="M90.5062 33.5797C90.5306 33.9772 90.7501 34.3867 90.3599 34.6276C90.1159 34.7721 89.7379 34.483 89.6891 34.3024C89.5794 33.7604 90.116 33.7845 90.5062 33.5797Z" fill="#232220"/>
<path d="M95.7135 24.7392C95.4208 24.3899 95.6281 24.0286 95.6281 23.6672C96.0794 23.6552 96.3355 23.872 96.6525 24.1731C96.3598 24.4862 96.0916 24.691 95.7135 24.7392Z" fill="#333132"/>
<path d="M93.2867 24.2694C92.7989 23.7635 92.4452 23.4745 92.6403 23.089C92.7379 22.8963 93.1891 22.8963 93.3842 23.065C93.8354 23.4624 93.1769 23.6913 93.2867 24.2694Z" fill="#272526"/>
<path d="M87.994 26.7144C87.7745 26.6904 87.4574 26.7506 87.5184 26.3893C87.555 26.1363 87.6891 25.787 87.9574 25.775C88.3233 25.7629 88.4452 26.1604 88.494 26.4254C88.555 26.7867 88.2135 26.6904 87.994 26.7144Z" fill="#333132"/>
<path d="M95.9086 33.6761C96.1281 33.8447 96.5672 33.8688 96.5184 34.2542C96.4818 34.5312 96.1159 34.6276 95.872 34.6637C95.5306 34.6999 95.5793 34.3747 95.5793 34.1699C95.5793 33.9531 95.5062 33.664 95.9086 33.6761Z" fill="#2D2C2B"/>
</svg>
