<svg width="123" height="76" viewBox="0 0 123 76" fill="none" xmlns="http://www.w3.org/2000/svg">
<path d="M51.9545 63.1951L51.5688 63.6359C50.9628 64.3521 50.1363 64.848 49.1997 64.9582L41.3761 66.0601H35.8665V63.9114C35.8665 63.691 36.0869 63.5257 36.2521 63.5808L41.4312 64.9582L50.1363 63.6359L51.0179 62.534C51.2383 62.2585 51.6239 62.2585 51.8443 62.4789C52.1198 62.6441 52.1749 62.9747 51.9545 63.1951Z" fill="#595B5B"/>
<path d="M36.3623 63.5807L39.5579 64.4072V66.005H35.9767V63.9113C35.9767 63.6909 36.1419 63.5257 36.3623 63.5807Z" fill="#1E1A19"/>
<path d="M47.8223 63.5807H35.4257C35.4257 63.5807 33.4422 55.1511 32.2852 53.1676C31.1282 51.1841 30.5222 50.7434 30.9629 49.8067C31.3486 48.8701 32.5607 48.815 37.6295 49.6415C42.6984 50.4679 45.5634 48.9252 46.5551 52.4513C47.5468 56.0326 47.8223 63.5807 47.8223 63.5807Z" fill="#020202"/>
<path d="M44.6818 60.4954L45.7286 63.6359H44.2961L43.5799 61.4871C43.5799 61.4871 43.1942 60.8811 43.9105 60.4954C44.5716 60.1097 44.6818 60.4954 44.6818 60.4954Z" fill="#595B5B"/>
<path d="M41.6515 60.4954L42.6984 63.6359H41.2659L40.5496 61.4871C40.5496 61.4871 40.1639 60.8811 40.8802 60.4954C41.5964 60.1097 41.6515 60.4954 41.6515 60.4954Z" fill="#595B5B"/>
<path d="M38.6763 60.4954L39.7232 63.6359H38.2907L37.5744 61.4871C37.5744 61.4871 37.1888 60.8811 37.905 60.4954C38.5662 60.1097 38.6763 60.4954 38.6763 60.4954Z" fill="#595B5B"/>
<path d="M12.8914 45.895L3.91077 55.7571C3.69039 56.0326 3.35981 56.1428 3.02923 56.1428H0.60501C0.109146 56.1428 -0.166339 55.5919 0.109141 55.2062L8.04297 44.3523C8.04297 44.3523 12.9465 44.2421 13.2771 44.6828C13.5526 45.1787 12.8914 45.895 12.8914 45.895Z" fill="#303030"/>
<path d="M8.04299 44.3523C8.04299 44.3523 9.08981 44.3523 10.2468 44.3523C10.3019 44.7931 9.80606 45.344 9.80606 45.344L0.825408 55.2062C0.605024 55.4266 0.329548 55.5919 0.0540676 55.5919C0.0540676 55.4817 0.0540667 55.3164 0.164258 55.2062L8.04299 44.3523Z" fill="#595B5B"/>
<path d="M1.10088 55.9775C1.43145 55.9775 1.76203 55.8122 1.98242 55.5918L10.9631 45.7297C10.9631 45.7297 11.6793 45.0134 11.3487 44.5726C11.2936 44.5175 11.1283 44.4073 10.8529 44.4073C12.0099 44.4624 13.1118 44.5175 13.2771 44.7379C13.6077 45.1787 12.8914 45.8949 12.8914 45.8949L3.91078 55.7571C3.69039 56.0326 3.35981 56.1428 3.02924 56.1428H0.605017C0.439729 56.1428 0.329538 56.0877 0.219347 55.9775H1.10088Z" fill="#020202"/>
<path d="M37.0503 60.6136C35.0624 58.5571 35.1181 55.2784 37.1746 53.2905C39.2312 51.3026 42.5098 51.3582 44.4977 53.4148C46.4856 55.4713 46.43 58.75 44.3734 60.7379C42.3169 62.7258 39.0382 62.6702 37.0503 60.6136Z" fill="#595B5B"/>
<path d="M37.9601 57.0244C37.9601 58.5671 39.2273 59.8343 40.77 59.8343C42.3127 59.8343 43.5799 58.5671 43.5799 57.0244C43.5799 55.4817 42.3127 54.2145 40.77 54.2145C39.2273 54.2145 37.9601 55.4817 37.9601 57.0244Z" fill="#303030"/>
<path d="M40.77 59.063C42.2025 59.063 43.3595 58.0161 43.5248 56.6387C43.5248 56.7489 43.5799 56.8591 43.5799 57.0244C43.5799 58.5671 42.3127 59.8343 40.77 59.8343C39.2273 59.8343 37.9601 58.5671 37.9601 57.0244C37.9601 56.9142 37.9601 56.804 38.0152 56.6387C38.1805 58.0161 39.3375 59.063 40.77 59.063Z" fill="#020202"/>
<path d="M35.1502 53.4982C34.6938 53.4982 34.3238 53.1282 34.3238 52.6718C34.3238 52.2153 34.6938 51.8453 35.1502 51.8453C35.6066 51.8453 35.9767 52.2153 35.9767 52.6718C35.9767 53.1282 35.6066 53.4982 35.1502 53.4982Z" fill="#595B5B"/>
<path d="M40.1089 57.0244C40.1089 57.41 40.4394 57.6855 40.77 57.6855C41.1557 57.6855 41.4312 57.3549 41.4312 57.0244C41.4312 56.6387 41.1006 56.3632 40.77 56.3632C40.3843 56.3632 40.1089 56.6387 40.1089 57.0244Z" fill="#595B5B"/>
<path d="M20.7151 45.7847C28.9795 45.7847 35.7012 52.5064 35.7012 60.7708C35.7012 69.0352 28.9795 75.7569 20.7151 75.7569C12.4507 75.7569 5.72896 69.0352 5.72896 60.7708C5.72896 52.5064 12.4507 45.7847 20.7151 45.7847ZM20.7151 71.2942C26.5001 71.2942 31.2384 66.611 31.2384 60.7708C31.2384 54.9858 26.5552 50.2475 20.7151 50.2475C14.93 50.2475 10.1917 54.9307 10.1917 60.7708C10.1917 66.5559 14.93 71.2942 20.7151 71.2942Z" fill="#1E1A19"/>
<path d="M7.82257 53.1676C7.10633 54.9307 6.72066 56.859 6.72066 58.8425C6.72066 67.1069 13.4424 73.8286 21.7068 73.8286C27.2164 73.8286 32.0097 70.8534 34.6543 66.4457C32.3954 71.9002 27.0511 75.757 20.7701 75.757C12.5057 75.757 5.78403 69.0352 5.78403 60.7709C5.72893 58.0161 6.50027 55.3714 7.82257 53.1676Z" fill="#4F4E4D"/>
<path d="M18.2963 66.4386C15.162 65.1009 13.7054 61.4757 15.0431 58.3413C16.3807 55.207 20.006 53.7505 23.1403 55.0881C26.2747 56.4258 27.7312 60.051 26.3936 63.1854C25.0559 66.3197 21.4307 67.7762 18.2963 66.4386Z" fill="#A3A3A3"/>
<path d="M107.546 46.4459C115.645 46.4459 122.202 53.0574 122.202 61.1015C122.202 69.2006 115.645 75.757 107.546 75.757C99.4472 75.757 92.8908 69.2006 92.8908 61.1015C92.8908 53.0574 99.4472 46.4459 107.546 46.4459ZM107.546 71.4044C113.221 71.4044 117.794 66.8314 117.794 61.1566C117.794 55.4817 113.221 50.9087 107.546 50.9087C101.871 50.9087 97.2985 55.4817 97.2985 61.1566C97.2985 66.8314 101.871 71.4044 107.546 71.4044Z" fill="#1E1A19"/>
<path d="M95.2599 53.1125C94.3784 54.9858 93.9376 57.0795 93.9376 59.2282C93.9376 67.3273 100.494 73.8837 108.593 73.8837C113.717 73.8837 118.29 71.2391 120.88 67.2171C118.566 72.2309 113.497 75.757 107.546 75.757C99.4472 75.757 92.8908 69.2006 92.8908 61.1015C92.8908 58.1814 93.7724 55.4266 95.2599 53.1125Z" fill="#4F4E4D"/>
<path d="M107.546 67.1069C104.23 67.1069 101.541 64.4182 101.541 61.1015C101.541 57.7847 104.23 55.096 107.546 55.096C110.863 55.096 113.552 57.7847 113.552 61.1015C113.552 64.4182 110.863 67.1069 107.546 67.1069Z" fill="#A3A3A3"/>
<path d="M102.588 35.8124L104.02 36.4184C109.199 38.5672 113.607 42.0933 116.747 46.6112C116.747 46.8867 116.527 47.1622 116.196 47.1622C114.929 47.1071 112.56 47.052 110.191 46.9969C105.342 46.8316 100.714 48.7048 97.2985 52.1208L91.9541 57.4651C89.3646 60.0546 85.8385 61.5422 82.1471 61.5422H80.8799L102.588 35.8124Z" fill="#AA080D"/>
<path d="M103.579 39.7242C103.579 39.7242 105.673 39.7242 108.538 41.2669C111.128 42.6443 115.645 46.3357 116.527 47.107C116.417 47.2172 116.307 47.2172 116.141 47.2172C114.819 47.1621 112.23 47.107 109.695 47.052C105.177 46.9418 100.77 48.6497 97.574 51.8453C97.5189 51.9004 97.4638 51.9555 97.4638 51.9555L93.3316 53.0574L103.579 39.7242Z" fill="#7E0007"/>
<path d="M103.579 39.7242C103.579 39.7242 105.673 39.7242 108.538 41.2669C111.128 42.6443 115.645 46.3357 116.527 47.107C116.417 47.2172 116.307 47.2172 116.141 47.2172C115.15 47.2172 113.497 47.1621 111.734 47.107C110.081 45.8398 108.042 44.3522 106.61 43.5809C104.13 42.2586 102.202 42.0933 101.761 42.0382L103.579 39.7242Z" fill="#A4070E"/>
<path d="M102.588 35.8124L104.02 36.4184C109.199 38.5672 113.607 42.0933 116.747 46.6112C116.747 46.7214 116.747 46.7765 116.692 46.8867C115.811 45.8398 113.662 43.4707 111.128 41.6526C108.593 39.8344 105.563 38.5121 104.185 37.906C103.855 37.7958 103.524 38.0162 103.469 38.3468C103.414 38.9528 103.194 39.7793 102.422 40.5506C101.045 41.9831 87.1057 60.5505 87.0506 60.6056C85.5079 61.2116 83.855 61.4871 82.1471 61.4871H80.8799L102.588 35.8124Z" fill="#A0060E"/>
<path d="M22.2577 28.2091L8.15317 39.9997C6.335 41.5424 7.05125 44.4625 9.31019 45.0134L40.3292 52.5065C43.1391 53.1676 45.2328 55.4817 45.6735 58.2916L46.0592 60.7158C46.3898 62.8094 48.1529 64.3521 50.2465 64.3521H80.4942C81.4308 64.3521 82.3124 63.9113 82.9184 63.1951L101.486 39.6691C102.973 37.7958 103.028 35.1512 101.651 33.2229L86.3895 11.2396H88.3178C89.8054 11.2396 90.8522 9.86218 90.5217 8.42969L88.8688 1.98346C88.5382 0.771344 87.4914 0 86.3344 0H84.3509C83.5796 0 82.8633 0.330576 82.3124 0.881536L76.8579 6.72171C75.8661 7.76853 75.6458 9.36632 76.2518 10.6886L84.2407 27.0521C87.1057 32.9474 86.9955 39.9446 83.8551 45.7297L81.7614 49.5313C81.2104 50.523 80.2187 51.1291 79.1168 51.1291H65.7836C62.3676 51.1291 59.6679 48.3743 59.6679 45.0134V31.2394C59.6679 31.2394 29.5304 23.4158 26.6654 24.9034C23.8555 26.391 22.2577 28.2091 22.2577 28.2091Z" fill="#AA080D"/>
<path d="M59.6679 44.9583C59.6679 48.3743 62.4227 51.074 65.7836 51.074H68.9241C68.9791 51.1291 69.0342 51.1291 69.0342 51.1291H61.1555C60.1087 51.1291 59.117 51.4045 58.2905 51.9555L48.5385 58.1813L52.2851 54.545C55.0399 51.8453 56.5825 48.209 56.5825 44.3522V42.8096C56.5825 38.8426 54.7644 35.041 51.6239 32.6168L48.5385 30.1926C48.5385 30.1926 48.4834 29.4212 48.4834 28.4295C54.6542 29.862 59.723 31.1843 59.723 31.1843V44.9583H59.6679Z" fill="#A0060E"/>
<path d="M8.09806 39.9997L18.3459 31.4048C20.3294 30.5783 22.4781 29.8621 24.7371 29.3662C38.2356 26.3359 50.7424 31.0742 52.7258 39.8895C53.993 45.4542 50.6873 51.3495 44.6818 55.647C43.7452 54.0492 42.1474 52.8922 40.2741 52.4514L9.25507 45.0135C6.99614 44.4625 6.27989 41.5424 8.09806 39.9997Z" fill="#AA080D"/>
<path d="M76.0314 8.2093C76.1967 7.65834 76.4722 7.10738 76.8579 6.72171L82.3124 0.881536C82.8082 0.330576 83.5796 0 84.3509 0H86.3344C87.4914 0 88.5382 0.771344 88.8137 1.92836L90.4115 8.2093H76.0314Z" fill="#7E0007"/>
<path d="M76.8579 6.72171L82.3124 0.881536C82.8082 0.330576 83.5796 0 84.3509 0H86.3344C87.4363 0 88.428 0.716248 88.7586 1.70798H85.0672C84.5162 1.70798 83.9653 1.92836 83.5796 2.31403L77.6843 8.2093H76.0314C76.1967 7.65834 76.4722 7.16248 76.8579 6.72171Z" fill="#A4070E"/>
<path d="M85.5079 15.6473L93.001 29.5315C94.8743 33.0576 94.8192 37.2449 92.7806 40.716L84.0755 55.5368C82.3124 58.512 79.1719 60.3301 75.7009 60.3301H51.8994C51.3484 60.3301 51.073 59.669 51.4586 59.2833L56.6376 53.9941C57.7947 52.8371 59.3924 52.1759 61.0453 52.1759H79.227C81.2105 52.1759 83.0286 50.9638 83.8 49.0905L86.4997 42.5341C88.4831 37.6306 88.3729 32.121 86.1691 27.3276L81.4859 17.1349L83.8 15.2616C84.3509 14.8759 85.1774 15.0412 85.5079 15.6473Z" fill="#A4070E"/>
<path d="M75.7009 60.275H52.6156L56.0316 56.8591C57.1886 55.7021 58.7864 55.0409 60.4393 55.0409H78.621C80.6044 55.0409 82.4226 53.8288 83.1939 51.9555L85.8385 45.3991C86.4997 43.8564 86.8854 42.2586 87.1057 40.6058C88.3729 36.2532 88.0424 31.5149 86.114 27.3276L82.2573 18.8979L83.4143 17.9613C83.8551 17.6307 84.5162 17.7409 84.7366 18.2368L92.395 32.3414C93.4418 34.2697 93.8825 36.4736 93.7173 38.6223C93.4969 39.3385 93.1663 39.9997 92.7806 40.6609L84.0755 55.4817C82.3124 58.4569 79.1168 60.275 75.7009 60.275Z" fill="#7E0007"/>
<path d="M78.3455 11.0743L79.7229 13.6638C79.8331 13.8842 80.0534 13.9393 80.2738 13.8291L85.2325 11.46C85.3977 11.3498 85.6732 11.46 85.7834 11.6253C85.8936 11.8457 85.8385 12.1211 85.6181 12.2313C84.1856 12.9476 79.5025 15.2065 79.5025 15.3167C79.5025 15.4269 81.3757 20.1101 83.0837 24.4626L76.362 10.6336C76.1416 10.1377 75.9763 9.58673 76.0314 9.03577H82.4777C82.5328 9.03577 82.5328 9.03577 82.5879 9.03577L89.1994 10.909C88.9239 11.0192 88.5933 11.1294 88.2076 11.1294H86.3895C86.3344 11.1294 86.3344 11.1294 86.2793 11.1294L83.249 10.4683C83.1939 10.4683 83.1939 10.4683 83.1388 10.4683L78.676 10.4132C78.4006 10.4683 78.1802 10.7988 78.3455 11.0743Z" fill="#A0060E"/>
<path d="M22.9189 33.7188C34.0483 31.2394 44.241 34.6003 45.7286 41.2669C46.6102 45.1236 44.6267 49.2558 40.4394 52.5065L9.25509 45.0134C8.15317 44.7379 7.43692 43.9666 7.16144 43.03C10.0264 38.8978 15.8115 35.3165 22.9189 33.7188Z" fill="#7E0007"/>
<path d="M42.8086 46.501C41.321 39.8344 31.2384 37.3 19.9988 38.9529C14.93 39.6691 11.2937 41.1567 8.2083 43.5809C7.82262 43.2504 7.38186 43.5809 7.21657 43.0851C10.0265 38.9529 15.8115 35.3165 22.974 33.7188C34.1034 31.2394 44.2962 34.6003 45.7838 41.2669C46.4449 44.2421 45.4532 47.9335 42.6984 50.4128C42.9739 49.2558 43.0841 47.658 42.8086 46.501Z" fill="#AA080D"/>
<path d="M9.53059 42.3688C9.53059 42.3688 15.7564 35.4818 28.2632 35.8675C45.1226 36.3634 45.3981 46.3908 45.3981 46.3908C45.3981 46.3908 47.1611 42.1485 42.7535 37.3551C38.2907 32.5618 27.547 32.5618 20.7702 34.8758C13.9383 37.1347 9.53059 42.3688 9.53059 42.3688Z" fill="#AA080D"/>
<path d="M42.6984 50.4128L52.7809 40.3854C53.7727 45.8399 50.522 51.5148 44.6818 55.7021C43.7452 54.1043 42.1474 52.9473 40.2742 52.5065L40.0538 52.4514C41.5414 51.4046 41.9821 51.074 42.6984 50.4128Z" fill="#7E0007"/>
<path d="M59.6679 40.3853L60.274 36.0878C60.5494 34.1044 61.7065 32.2862 63.4144 31.2394L64.2409 30.7435L59.172 29.862L59.6679 40.3853Z" fill="#A0060E"/>
<path d="M22.9189 33.7188C34.0483 31.2394 44.2411 34.6003 45.7286 41.2669C45.8939 42.0382 45.8388 43.636 45.7837 44.4074C45.8388 41.4873 44.186 36.3634 35.591 34.7656C28.6489 33.4433 23.0291 34.4901 17.9052 36.4735C14.4892 37.7959 11.4589 40.3854 9.80606 41.9831C9.2 42.5892 9.42039 43.636 10.2468 43.8564L40.164 52.4514L9.2551 45.0134C8.15318 44.7379 7.43693 43.9666 7.16145 43.03C10.0264 38.8978 15.8115 35.3165 22.9189 33.7188Z" fill="#7E0007"/>
<path d="M23.3597 28.4846L60.7699 31.6251C63.745 31.9006 66.2794 29.5314 66.2794 26.5563C66.2794 23.7464 64.0205 21.4874 61.2106 21.4874H23.6352C21.7068 21.4874 20.109 23.0301 20.109 25.0136C20.109 26.8317 21.5415 28.3193 23.3597 28.4846Z" fill="#51322B"/>
<path d="M60.5495 25.5645H22.974C21.9823 25.5645 21.1558 25.9502 20.4947 26.6114C20.2743 26.1155 20.109 25.5645 20.109 25.0136C20.109 23.0852 21.6517 21.4874 23.6352 21.4874H61.2106C64.0205 21.4874 66.2794 23.7464 66.2794 26.5563C66.2794 27.6031 65.9489 28.5397 65.453 29.3111C64.902 27.1623 62.9186 25.5645 60.5495 25.5645Z" fill="#825B52"/>
<path d="M61.2106 23.1403H23.6352C21.9823 23.1403 20.6049 24.2973 20.2192 25.84C20.1641 25.5645 20.109 25.2891 20.109 25.0136C20.109 23.0852 21.6517 21.4874 23.6352 21.4874H61.2106C64.0205 21.4874 66.2794 23.7464 66.2794 26.5563C66.2794 26.8317 66.2244 27.1072 66.2244 27.3827C65.8387 25.0136 63.745 23.1403 61.2106 23.1403Z" fill="#BF9790"/>
<path d="M82.8633 6.5013L78.2904 4.73823C77.6843 4.51784 77.0232 4.79332 76.7477 5.39938L76.2518 6.55639C76.1416 6.83187 76.1416 7.16245 76.3069 7.43793L77.1333 8.81533C77.3537 9.201 77.8496 9.42138 78.2904 9.2561L82.8633 7.54812C83.3041 7.32774 83.3041 6.66659 82.8633 6.5013Z" fill="#1E1A19"/>
<path d="M78.4557 7.98894H75.4254C74.8193 7.98894 74.3235 7.49307 74.3235 6.88702C74.3235 6.28096 74.8193 5.7851 75.4254 5.7851H78.2353C78.2353 5.7851 79.1168 5.61981 79.5025 5.95038C79.8331 6.33606 79.8331 7.49307 79.5025 7.87874C79.1168 8.26442 78.4557 7.98894 78.4557 7.98894Z" fill="#1E1A19"/>
<path d="M79.4474 6.28096C79.1168 5.89529 78.1802 6.11567 78.1802 6.11567H75.3703C74.8193 6.11567 74.3786 6.50134 74.2684 7.0523C74.2684 6.99721 74.2684 6.94211 74.2684 6.88702C74.2684 6.28096 74.7643 5.7851 75.3703 5.7851H78.1802C78.1802 5.7851 79.0617 5.61981 79.4474 5.95038C79.6127 6.17077 79.7229 6.61154 79.6678 7.0523C79.6678 6.72173 79.6127 6.44625 79.4474 6.28096Z" fill="#4F4E4D"/>
<path d="M35.9766 63.5808L31.018 57.1896C30.7976 56.8591 30.467 56.6387 30.0814 56.5836L14.8198 52.5616C13.1669 52.1208 11.514 53.3329 11.4038 55.0409L11.1834 58.567C11.1283 59.8342 11.8997 60.9913 13.1118 61.3769L28.8142 66.7212C29.31 66.8865 29.861 66.9416 30.4119 66.8865L36.0317 66.005V63.5808H35.9766Z" fill="#595B5B"/>
<path d="M11.3487 55.096C11.3487 54.7103 11.4589 54.3797 11.6242 54.0491L11.4038 57.5753C11.3487 58.8425 12.1201 59.9995 13.3322 60.3852L29.0346 65.7295C29.5304 65.8948 30.0814 65.9499 30.6323 65.8948L35.9767 65.0683V66.0601L30.3569 66.9416C29.8059 67.0518 29.2549 66.9967 28.7591 66.7763L13.0567 61.432C11.8446 61.0463 11.0733 59.8893 11.1284 58.6221L11.3487 55.096Z" fill="#3D3D3D"/>
<path d="M33.4973 60.4954L28.6489 63.4706C27.7673 64.0215 26.6654 64.1317 25.6186 63.8012L14.8198 60.1097C13.5526 59.669 12.7812 58.4569 12.8363 57.1345L13.0016 54.7654C13.0567 53.9941 13.7729 53.4982 14.4892 53.6635L31.1833 57.5202L33.4973 60.4954Z" fill="#7A7C7C"/>
<path d="M26.9409 57.6856L16.0319 54.8206C15.7564 54.7655 15.4809 54.9859 15.536 55.3164L15.7013 56.0327C15.7564 56.198 15.8666 56.3082 15.9768 56.3082L26.5552 59.0079C27.0511 59.1181 27.4919 58.7324 27.4368 58.2365C27.4368 58.0161 27.2164 57.7407 26.9409 57.6856Z" fill="#B5B5B5"/>
<path d="M15.7013 54.9307C15.7013 54.9858 15.7013 54.9858 15.7013 55.0409L15.8666 55.7571C15.9217 55.9224 16.0319 56.0326 16.1421 56.0326L26.7205 58.7323C26.996 58.7874 27.2715 58.6772 27.4368 58.5119C27.3817 58.8976 26.996 59.1731 26.5552 59.0629L15.9768 56.3632C15.8115 56.3081 15.7013 56.1979 15.7013 56.0877L15.536 55.3714C15.536 55.151 15.5911 55.0409 15.7013 54.9307Z" fill="#E2DCDC"/>
<path d="M26.7756 60.4954L15.8666 57.6304C15.5911 57.5754 15.3157 57.7957 15.3708 58.1263L15.536 58.8426C15.5911 59.0078 15.7013 59.118 15.8115 59.118L26.39 61.8177C26.8858 61.9279 27.3266 61.5423 27.2715 61.0464C27.2164 60.7709 27.0511 60.5505 26.7756 60.4954Z" fill="#B5B5B5"/>
<path d="M17.3542 32.2863L8.86944 39.3385H7.27165C6.33502 39.3385 5.89425 38.1264 6.6105 37.5204L12.4507 32.6168C12.7262 32.3964 13.0567 32.2863 13.3873 32.2863H17.3542Z" fill="#303030"/>
<path d="M12.616 32.5617C12.8364 32.3964 13.1669 32.2863 13.4424 32.2863H17.3542L12.5609 36.2532H10.9631C10.0265 36.2532 9.58568 35.0411 10.3019 34.435L12.616 32.5617Z" fill="#595B5B"/>
<path d="M6.66561 37.5204L12.5058 32.6168C12.7813 32.3964 13.1118 32.2863 13.4424 32.2863H15.1504L6.99618 39.2834C6.27993 39.0631 6.00446 38.0713 6.66561 37.5204Z" fill="#990000"/>
<path d="M13.4424 32.2863H15.1504L8.86945 37.6857C8.2083 37.4653 7.93282 36.5837 8.48378 36.0328L12.5609 32.6719C12.7813 32.4515 13.1118 32.2863 13.4424 32.2863Z" fill="#AA080D"/>
<path d="M15.536 57.6855C15.536 57.7406 15.536 57.7406 15.536 57.7957L15.7013 58.5119C15.7564 58.6772 15.8666 58.7874 15.9768 58.7874L26.5552 61.4871C26.8307 61.5422 27.1062 61.432 27.2715 61.2667C27.2164 61.6524 26.8307 61.9279 26.39 61.8177L15.8115 59.118C15.6462 59.0629 15.536 58.9527 15.536 58.8425L15.3708 58.1263C15.3157 57.961 15.4258 57.7957 15.536 57.6855Z" fill="#E2DCDC"/>
</svg>
