<svg width="36" height="36" viewBox="0 0 36 36" fill="none" xmlns="http://www.w3.org/2000/svg">
<g clip-path="url(#clip0_0_126)">
<path d="M18 5.0325C17.6354 5.03255 17.2859 5.17847 17.0296 5.43774L3.26225 17.4508C3.08788 17.5795 2.98498 17.7833 2.98499 18C2.98499 18.3769 3.29055 18.6825 3.66749 18.6825H7.07999V29.6025C7.07999 30.356 7.69151 30.9675 8.44499 30.9675H13.905C14.6585 30.9675 15.27 30.356 15.27 29.6025V21.4125H20.73V29.6025C20.73 30.356 21.3415 30.9675 22.095 30.9675H27.555C28.3085 30.9675 28.92 30.356 28.92 29.6025V18.6825H32.3325C32.7094 18.6825 33.015 18.3769 33.015 18C33.015 17.7833 32.9121 17.5795 32.7377 17.4508L18.9784 5.44573C18.9758 5.44306 18.9731 5.44039 18.9704 5.43774C18.714 5.17847 18.3646 5.03255 18 5.0325Z" fill="url(#paint0_linear_0_126)"/>
</g>
<defs>
<linearGradient id="paint0_linear_0_126" x1="18" y1="5.0325" x2="18" y2="30.9675" gradientUnits="userSpaceOnUse">
<stop stop-color="#AD080D"/>
<stop offset="1" stop-color="#94030E"/>
</linearGradient>
<clipPath id="clip0_0_126">
<rect width="36" height="36" fill="white"/>
</clipPath>
</defs>
</svg>
