<svg width="36" height="36" viewBox="0 0 36 36" fill="none" xmlns="http://www.w3.org/2000/svg">
<g clip-path="url(#clip0_0_142)">
<path d="M18.0778 3.06C15.2279 3.06 15.2766 3.33234 15.2766 3.33234C14.9361 4.97613 14.5811 6.08982 14.3428 6.75609C12.8936 7.23269 11.5562 7.97678 10.4133 8.93484C9.7227 8.79867 8.609 8.54578 7.06734 8.00109C7.06734 8.00109 6.85822 7.82115 5.39438 10.2966C3.92566 12.772 4.14938 12.9033 4.14938 12.9033C5.28738 13.9732 6.03147 14.7951 6.48375 15.3544C6.28922 16.2054 6.1725 17.0906 6.1725 18C6.1725 18.8268 6.24545 19.6341 6.40594 20.4122C5.94393 20.9617 5.18525 21.7885 4.03266 22.8244C4.03266 22.8244 3.82354 22.9265 5.23875 25.4311C6.65397 27.9357 6.83391 27.7655 6.83391 27.7655C8.39016 27.25 9.5233 27.0311 10.2188 26.9095C11.3568 27.9114 12.6844 28.6603 14.1483 29.1661C14.3914 29.8226 14.7708 30.9655 15.1209 32.6677C15.1209 32.6677 15.0772 32.94 17.9222 32.94C20.7672 32.94 20.7623 32.6677 20.7623 32.6677C21.1028 31.0287 21.414 29.9102 21.6572 29.2439C23.1064 28.7673 24.4438 28.0232 25.5867 27.0652C26.2773 27.2013 27.391 27.4542 28.9327 27.9989C28.9327 27.9989 29.1369 28.1788 30.6056 25.7034C32.0695 23.228 31.8506 23.0967 31.8506 23.0967C30.7126 22.0268 29.9685 21.2049 29.5163 20.6456C29.7108 19.7897 29.8275 18.9094 29.8275 18C29.8275 17.1732 29.7546 16.3659 29.5941 15.5878C30.0561 15.0383 30.8147 14.2115 31.9673 13.1756C31.9673 13.1756 32.1765 13.0735 30.7613 10.5689C29.346 8.06431 29.1661 8.23453 29.1661 8.23453C27.6098 8.75004 26.4767 8.96888 25.7813 9.09047C24.6432 8.09349 23.3156 7.33968 21.8517 6.8339C21.6134 6.17736 21.2292 5.03449 20.8791 3.33234C20.8791 3.33234 20.9228 3.06 18.0778 3.06ZM18 8.04C23.5004 8.04 27.96 12.4996 27.96 18C27.96 23.5004 23.5004 27.96 18 27.96C12.4996 27.96 8.04 23.5004 8.04 18C8.04 12.4996 12.4996 8.04 18 8.04ZM18 9.285C13.1854 9.285 9.285 13.1853 9.285 18C9.285 22.8146 13.1854 26.715 18 26.715C22.8146 26.715 26.715 22.8146 26.715 18C26.715 13.1853 22.8146 9.285 18 9.285ZM18 13.02C20.7526 13.02 22.98 15.2474 22.98 18C22.98 20.7526 20.7526 22.98 18 22.98C15.2474 22.98 13.02 20.7526 13.02 18C13.02 15.2474 15.2474 13.02 18 13.02Z" fill="white"/>
</g>
<defs>
<clipPath id="clip0_0_142">
<rect width="36" height="36" fill="white"/>
</clipPath>
</defs>
</svg>
